<?xml version="1.0" encoding="UTF-8"?>
<svg version="1.1" xmlns="http://www.w3.org/2000/svg" width="512" height="512">
<path d="M0 0 C0.97088562 0.00215515 1.94177124 0.0043103 2.94207764 0.00653076 C17.27751026 0.05757173 31.28525803 0.44028152 45.375 3.3125 C46.40109375 3.51649414 47.4271875 3.72048828 48.484375 3.93066406 C83.03103255 10.96074515 116.61097294 23.58881121 145.375 44.3125 C145.97731445 44.74643066 146.57962891 45.18036133 147.20019531 45.62744141 C167.20967528 60.12958812 186.4267953 76.50039905 201.375 96.3125 C201.88595215 96.97411133 202.3969043 97.63572266 202.92333984 98.31738281 C211.77074344 109.78950773 219.50358371 121.56016726 226.375 134.3125 C226.73255371 134.96718262 227.09010742 135.62186523 227.45849609 136.29638672 C239.59564722 158.70923389 247.47234292 182.73995315 252.625 207.625 C252.77630371 208.35178955 252.92760742 209.0785791 253.08349609 209.82739258 C256.06416968 225.16354759 256.74985124 240.35335883 256.6875 255.9375 C256.68534485 256.90838562 256.6831897 257.87927124 256.68096924 258.87957764 C256.62992827 273.21501026 256.24721848 287.22275803 253.375 301.3125 C253.17100586 302.33859375 252.96701172 303.3646875 252.75683594 304.421875 C245.72675485 338.96853255 233.09868879 372.54847294 212.375 401.3125 C211.94106934 401.91481445 211.50713867 402.51712891 211.06005859 403.13769531 C196.55791188 423.14717528 180.18710095 442.3642953 160.375 457.3125 C159.71338867 457.82345215 159.05177734 458.3344043 158.37011719 458.86083984 C146.89799227 467.70824344 135.12733274 475.44108371 122.375 482.3125 C121.72031738 482.67005371 121.06563477 483.02760742 120.39111328 483.39599609 C97.97826611 495.53314722 73.94754685 503.40984292 49.0625 508.5625 C48.33571045 508.71380371 47.6089209 508.86510742 46.86010742 509.02099609 C31.52395241 512.00166968 16.33414117 512.68735124 0.75 512.625 C-0.22088562 512.62284485 -1.19177124 512.6206897 -2.19207764 512.61846924 C-16.52751026 512.56742827 -30.53525803 512.18471848 -44.625 509.3125 C-46.16414063 509.00650879 -46.16414063 509.00650879 -47.734375 508.69433594 C-82.28103255 501.66425485 -115.86097294 489.03618879 -144.625 468.3125 C-145.22731445 467.87856934 -145.82962891 467.44463867 -146.45019531 466.99755859 C-166.45967528 452.49541188 -185.6767953 436.12460095 -200.625 416.3125 C-201.39142822 415.32008301 -201.39142822 415.32008301 -202.17333984 414.30761719 C-211.02074344 402.83549227 -218.75358371 391.06483274 -225.625 378.3125 C-225.98255371 377.65781738 -226.34010742 377.00313477 -226.70849609 376.32861328 C-238.84564722 353.91576611 -246.72234292 329.88504685 -251.875 305 C-252.02630371 304.27321045 -252.17760742 303.5464209 -252.33349609 302.79760742 C-255.31416968 287.46145241 -255.99985124 272.27164117 -255.9375 256.6875 C-255.93534485 255.71661438 -255.9331897 254.74572876 -255.93096924 253.74542236 C-255.87992827 239.40998974 -255.49721848 225.40224197 -252.625 211.3125 C-252.42100586 210.28640625 -252.21701172 209.2603125 -252.00683594 208.203125 C-239.9873309 149.1378426 -208.34678893 92.07302712 -159.625 55.3125 C-158.96338867 54.80154785 -158.30177734 54.2905957 -157.62011719 53.76416016 C-146.14799227 44.91675656 -134.37733274 37.18391629 -121.625 30.3125 C-120.97031738 29.95494629 -120.31563477 29.59739258 -119.64111328 29.22900391 C-97.22826611 17.09185278 -73.19754685 9.21515708 -48.3125 4.0625 C-47.58571045 3.91119629 -46.8589209 3.75989258 -46.11010742 3.60400391 C-30.77395241 0.62333032 -15.58414117 -0.06235124 0 0 Z " fill="#E9F3F8" transform="translate(255.625,-0.3125)"/>
<path d="M0 0 C1.32152069 0.00031723 1.32152069 0.00031723 2.66973877 0.00064087 C16.65024925 0.034081 29.95465256 0.9549055 43.5625 4.375 C44.34592773 4.56223633 45.12935547 4.74947266 45.93652344 4.94238281 C51.21334586 6.2191401 56.39527048 7.71136506 61.5625 9.375 C62.31418457 9.61557129 63.06586914 9.85614258 63.84033203 10.10400391 C81.55794901 15.90297137 98.50210017 24.35362323 113.5625 35.375 C114.57957031 36.10847656 115.59664063 36.84195313 116.64453125 37.59765625 C159.48812844 69.13847464 186.93836637 116.0461299 195.5625 168.375 C196.36366248 174.28665534 196.730356 180.11947014 196.765625 186.08203125 C196.77263931 186.88107376 196.77965363 187.68011627 196.78688049 188.50337219 C196.80427244 191.06480625 196.81073197 193.62600908 196.8125 196.1875 C196.81317474 197.06315613 196.81384949 197.93881226 196.81454468 198.84100342 C196.79889627 211.60922569 196.34102894 223.87161976 193.5625 236.375 C193.39621094 237.19419922 193.22992188 238.01339844 193.05859375 238.85742188 C184.35634549 281.69182167 161.23868617 323.93109102 126.5625 351.375 C125.61246094 352.13941406 124.66242188 352.90382813 123.68359375 353.69140625 C106.12828671 367.63103724 78.03031412 389.01971082 54.5625 387.375 C51.7524654 385.58136089 50.05309532 384.35619065 48.5625 381.375 C48.46236589 379.29980933 48.42689511 377.2213946 48.4206543 375.14379883 C48.41010262 373.17453178 48.41010262 373.17453178 48.39933777 371.16548157 C48.39661393 370.10777274 48.39661393 370.10777274 48.39383507 369.02869606 C48.38664931 366.81059542 48.37095978 364.59271345 48.35249329 362.37467957 C48.30017638 356.0663077 48.25222753 349.75804618 48.23657227 343.44946289 C48.22636533 339.5889438 48.19671153 335.72896253 48.15525246 331.86865807 C48.14309905 330.41019491 48.1377919 328.95165513 48.14005089 327.49314308 C48.15683262 313.0984486 45.96706456 300.3815208 37.5625 288.375 C36.5725 286.89 36.5725 286.89 35.5625 285.375 C36.14515625 285.28001221 36.7278125 285.18502441 37.328125 285.0871582 C59.23217813 281.46016041 81.57726079 276.75398923 98.5625 261.375 C99.23410156 260.79492188 99.90570313 260.21484375 100.59765625 259.6171875 C120.190716 241.57194172 123.34474257 214.51778842 124.7890625 189.44140625 C125.27514089 169.97617609 118.88434046 152.3114749 106.5625 137.375 C106.2325 137.045 105.9025 136.715 105.5625 136.375 C105.6484375 134.51953125 105.6484375 134.51953125 105.9375 132.1875 C106.02773438 131.43082031 106.11796875 130.67414063 106.2109375 129.89453125 C106.45377956 128.15416317 106.74757195 126.42041838 107.08203125 124.6953125 C108.86751436 112.35660808 108.20737897 100.07034841 104.4375 88.2109375 C103.5625 85.375 103.5625 85.375 103.5625 82.375 C90.83298328 83.69664381 80.02716391 86.52025845 68.5 92.1875 C67.8088208 92.5263623 67.1176416 92.86522461 66.40551758 93.21435547 C62.27333798 95.30972533 58.91087979 97.68189817 55.3125 100.625 C50.75520752 103.65635221 47.69697426 103.48591076 42.53540039 102.51953125 C39.02180058 101.73234753 35.5316755 100.86749316 32.04345703 99.97509766 C8.18186902 94.20342049 -19.68633257 96.08290142 -43.24243164 102.09033203 C-49.65179303 103.71568111 -49.65179303 103.71568111 -53.87890625 101.8828125 C-55.42384766 100.70332031 -55.42384766 100.70332031 -57 99.5 C-58.19191911 98.6477986 -59.39013031 97.80434443 -60.59375 96.96875 C-61.21507812 96.535625 -61.83640625 96.1025 -62.4765625 95.65625 C-74.90772498 87.53389682 -88.74602332 83.6200404 -103.4375 82.375 C-104.0887183 85.04045164 -104.73357161 87.70719056 -105.375 90.375 C-105.55740234 91.11878906 -105.73980469 91.86257812 -105.92773438 92.62890625 C-108.89104683 105.02094014 -109.09928346 115.75012673 -106.09375 128.17578125 C-105.49703169 131.08478302 -105.10468915 133.4301282 -105.4375 136.375 C-106.5390625 138.04296875 -106.5390625 138.04296875 -108.0625 139.5625 C-123.49978043 156.38331028 -125.2439344 177.86506336 -124.56298828 199.59716797 C-124.31946669 204.98780733 -123.66211565 210.12368206 -122.4375 215.375 C-122.01791016 217.19837891 -122.01791016 217.19837891 -121.58984375 219.05859375 C-116.47400435 239.62551083 -107.41582968 256.96889292 -89.125 268.6875 C-72.5424199 278.26115014 -55.10916862 282.35827998 -36.4375 285.375 C-37.85612715 288.35411702 -39.51399626 291.04951369 -41.3125 293.8125 C-43.84236825 297.89547682 -45.11329016 301.59315646 -46.25 306.25 C-47.82611084 311.87896729 -47.82611084 311.87896729 -50.5078125 314.0546875 C-52.83029089 315.10478499 -54.95182756 315.82169686 -57.4375 316.375 C-58.17742187 316.55933594 -58.91734375 316.74367188 -59.6796875 316.93359375 C-71.26589597 318.78804355 -83.07078372 318.61808634 -92.8359375 311.66796875 C-98.98430799 306.59604798 -103.4506113 300.51291495 -108.11230469 294.12695312 C-114.11511739 285.96560803 -120.26299555 279.76644335 -130.4375 277.375 C-134.46535267 277.08457564 -138.40890553 277.12580859 -142.4375 277.375 C-142.7675 278.365 -143.0975 279.355 -143.4375 280.375 C-140.18319838 283.74071015 -136.84673066 286.66696045 -133.125 289.5 C-123.99456172 296.96590797 -119.13544699 305.67895281 -114.36645508 316.23168945 C-108.44087494 329.15401788 -100.34737209 336.09826281 -87.26953125 341.39453125 C-82.96545115 342.88463346 -79.00096959 343.50169276 -74.453125 343.5078125 C-73.04933594 343.50974609 -73.04933594 343.50974609 -71.6171875 343.51171875 C-70.16699219 343.50591797 -70.16699219 343.50591797 -68.6875 343.5 C-67.73617187 343.50386719 -66.78484375 343.50773437 -65.8046875 343.51171875 C-64.86367187 343.51042969 -63.92265625 343.50914062 -62.953125 343.5078125 C-62.11040039 343.50668457 -61.26767578 343.50555664 -60.39941406 343.50439453 C-56.3874348 343.32912673 -52.42292537 342.85572078 -48.4375 342.375 C-48.31368851 347.83756275 -48.22306174 353.29930488 -48.1628418 358.76293945 C-48.13773298 360.62050609 -48.10363866 362.47797427 -48.06030273 364.33520508 C-47.99948876 367.00887358 -47.9712548 369.68123365 -47.94921875 372.35546875 C-47.92341232 373.18273972 -47.8976059 374.01001068 -47.87101746 374.86235046 C-47.8689486 379.13769091 -48.06373085 380.8737903 -50.69946289 384.40820312 C-54.76972698 387.33197018 -57.61491224 387.0891217 -62.4375 386.375 C-65.30714811 385.68463461 -67.96450638 384.69421492 -70.6875 383.5625 C-71.44981934 383.2540918 -72.21213867 382.94568359 -72.99755859 382.62792969 C-102.15619502 370.47898883 -130.67735404 351.34252561 -150.4375 326.375 C-151.20191406 325.42496094 -151.96632812 324.47492188 -152.75390625 323.49609375 C-168.69706569 303.41986532 -180.98605713 280.92703958 -188.4375 256.375 C-188.82292969 255.15425781 -189.20835937 253.93351563 -189.60546875 252.67578125 C-190.69868527 248.93538911 -191.61167732 245.18100274 -192.4375 241.375 C-192.61941895 240.56724121 -192.80133789 239.75948242 -192.98876953 238.92724609 C-198.84708895 211.89380085 -199.27380161 181.25829416 -192.4375 154.375 C-192.21255859 153.47168945 -191.98761719 152.56837891 -191.75585938 151.63769531 C-188.84399888 140.1948055 -185.20745972 129.18313426 -180.4375 118.375 C-180.15181152 117.71081055 -179.86612305 117.04662109 -179.57177734 116.36230469 C-170.56737633 95.55148484 -157.47641269 77.20223094 -141.83642578 60.84570312 C-140.46767396 59.40672216 -139.12218369 57.94572824 -137.77734375 56.484375 C-113.02438438 30.11661131 -78.39317495 12.96332556 -43.5625 4.5625 C-42.75603027 4.36769043 -41.94956055 4.17288086 -41.11865234 3.97216797 C-27.41587192 0.83844728 -13.99828791 -0.03106056 0 0 Z " fill="#3D76BE" transform="translate(255.4375,58.625)"/>
<path d="M0 0 C0 14.85 0 29.7 0 45 C-2.92207587 45.97402529 -5.17793039 46.23556907 -8.234375 46.4296875 C-9.27577637 46.50098877 -10.31717773 46.57229004 -11.39013672 46.64575195 C-12.4988916 46.72140381 -13.60764648 46.79705566 -14.75 46.875 C-24.40798615 47.60047931 -33.58243244 48.67841314 -43 51 C-43.70721191 51.16338867 -44.41442383 51.32677734 -45.14306641 51.49511719 C-79.51408723 59.45007858 -110.42816242 76.77822838 -136 101 C-137.39992187 102.30324219 -137.39992187 102.30324219 -138.828125 103.6328125 C-168.25484912 131.60156515 -186.9324912 170.31581174 -194 210 C-194.17515137 210.90733887 -194.35030273 211.81467773 -194.53076172 212.74951172 C-196.23950913 222.42123549 -196.39838035 231.95965743 -196.375 241.75 C-196.37445618 242.60794159 -196.37391235 243.46588318 -196.37335205 244.349823 C-196.33116225 258.87408404 -195.27137721 272.80660467 -192 287 C-191.78569336 287.94568848 -191.57138672 288.89137695 -191.35058594 289.86572266 C-188.24645986 303.15653324 -183.85357488 315.67772881 -178 328 C-177.59652344 328.84949219 -177.19304687 329.69898438 -176.77734375 330.57421875 C-168.20933706 348.3128748 -157.55200774 363.72328596 -144 378 C-142.84785031 379.34879668 -141.70155917 380.7026303 -140.5625 382.0625 C-121.96874354 403.2878554 -88.54107414 426.95170295 -60.2890625 431.4296875 C-56.9429926 431.61377549 -54.60827176 431.40776038 -51.79589844 429.52246094 C-49.15442086 425.81232685 -49.39720037 422.53310192 -49.390625 418.078125 C-49.37408875 417.21813904 -49.35755249 416.35815308 -49.34051514 415.47210693 C-49.29201632 412.73133212 -49.27066044 409.9911122 -49.25 407.25 C-49.22184183 405.38929497 -49.19191461 403.52861581 -49.16015625 401.66796875 C-49.08625703 397.11202485 -49.03669405 392.55638933 -49 388 C-49.58896057 388.1404776 -50.17792114 388.2809552 -50.784729 388.4256897 C-67.04476128 392.1930453 -83.51479848 391.32513174 -98.3125 383.3125 C-107.80498876 377.10174403 -112.37874943 368.83844828 -117.125 358.8828125 C-122.68440116 347.22727938 -129.10234075 338.98135062 -139.59399414 331.55078125 C-141.9642146 329.82673338 -143.75933145 328.51757677 -145.01171875 325.82421875 C-145 324 -145 324 -143 322 C-133.8362303 320.75303134 -126.05883945 322.41296917 -118.54296875 327.7421875 C-112.66600288 332.64737161 -108.42811402 338.34726762 -104.03759766 344.53564453 C-98.10281998 352.80741136 -91.31147771 359.89023474 -81 362 C-71.41861603 363.05258951 -58.051696 363.80015791 -50 358 C-48.09550768 354.30510938 -47.03813037 350.79851972 -46.046875 346.78515625 C-44.64562578 341.71869918 -42.16169869 338.11669859 -39 334 C-38.34 333.01 -37.68 332.02 -37 331 C-38.01835937 330.91363281 -39.03671875 330.82726562 -40.0859375 330.73828125 C-57.51991908 329.08425074 -72.72675952 324.59547839 -88 316 C-88.86109375 315.51789063 -89.7221875 315.03578125 -90.609375 314.5390625 C-109.25640199 303.09957431 -118.81362864 283.65881132 -123.8125 263.0625 C-128.87211107 240.27891803 -128.27533559 214.03172063 -116.00390625 193.69140625 C-110.80310357 185.74228949 -110.80310357 185.74228949 -108.24609375 183.37890625 C-107.83488281 182.92386719 -107.42367187 182.46882812 -107 182 C-107.19587913 178.34358955 -107.80682074 174.96589632 -108.5234375 171.3828125 C-110.36805217 161.94587079 -110.28547758 153.82382201 -108.6875 144.375 C-108.56995361 143.67036621 -108.45240723 142.96573242 -108.33129883 142.23974609 C-107.4159691 137.22970489 -105.89607508 132.72690986 -104 128 C-86.21344355 126.7518206 -67.49977206 135.6414086 -54.00390625 146.7265625 C-50.08676225 148.3871463 -47.93792395 147.69406211 -43.89282227 146.69775391 C-38.39634131 145.37199287 -32.77831337 144.69051573 -27.1875 143.875 C-25.41536133 143.60236328 -25.41536133 143.60236328 -23.60742188 143.32421875 C-21.84301758 143.06705078 -21.84301758 143.06705078 -20.04296875 142.8046875 C-19.00164795 142.64983887 -17.96032715 142.49499023 -16.88745117 142.33544922 C-11.27803549 141.85141121 -5.63026083 142 0 142 C0 255.52 0 369.04 0 486 C-38.82797577 486 -75.60319914 479.6710856 -110.00634766 461.07714844 C-112.12440675 459.9327844 -114.25541635 458.81479388 -116.38671875 457.6953125 C-135.80565337 447.34579844 -153.0872217 434.16296152 -169 419 C-169.60038086 418.42830078 -170.20076172 417.85660156 -170.81933594 417.26757812 C-179.71160845 408.73797444 -187.69386999 399.91787448 -195 390 C-195.42087891 389.43990234 -195.84175781 388.87980469 -196.27539062 388.30273438 C-227.48122933 346.74288468 -244.25337641 295.73730147 -244.1875 243.875 C-244.18756042 243.14355774 -244.18762085 242.41211548 -244.18768311 241.6585083 C-244.17508478 230.95256543 -243.65707264 220.58881168 -242 210 C-241.89042969 208.86949219 -241.78085938 207.73898438 -241.66796875 206.57421875 C-239.11738094 181.37665343 -230.09738667 155.23391473 -218.07714844 132.99365234 C-216.9327844 130.87559325 -215.81479388 128.74458365 -214.6953125 126.61328125 C-204.34579844 107.19434663 -191.16296152 89.9127783 -176 74 C-175.42830078 73.39961914 -174.85660156 72.79923828 -174.26757812 72.18066406 C-165.73797444 63.28839155 -156.91787448 55.30613001 -147 48 C-146.43990234 47.57912109 -145.87980469 47.15824219 -145.30273438 46.72460938 C-102.78567634 14.80003639 -52.82344856 -0.77681542 0 0 Z " fill="#FEFEFE" transform="translate(256,13)"/>
<path d="M0 0 C1.32152069 0.00031723 1.32152069 0.00031723 2.66973877 0.00064087 C16.65024925 0.034081 29.95465256 0.9549055 43.5625 4.375 C44.34592773 4.56223633 45.12935547 4.74947266 45.93652344 4.94238281 C51.21334586 6.2191401 56.39527048 7.71136506 61.5625 9.375 C62.31418457 9.61557129 63.06586914 9.85614258 63.84033203 10.10400391 C81.55794901 15.90297137 98.50210017 24.35362323 113.5625 35.375 C114.57957031 36.10847656 115.59664063 36.84195313 116.64453125 37.59765625 C159.48812844 69.13847464 186.93836637 116.0461299 195.5625 168.375 C196.36366248 174.28665534 196.730356 180.11947014 196.765625 186.08203125 C196.77263931 186.88107376 196.77965363 187.68011627 196.78688049 188.50337219 C196.80427244 191.06480625 196.81073197 193.62600908 196.8125 196.1875 C196.81317474 197.06315613 196.81384949 197.93881226 196.81454468 198.84100342 C196.79889627 211.60922569 196.34102894 223.87161976 193.5625 236.375 C193.39621094 237.19419922 193.22992188 238.01339844 193.05859375 238.85742188 C184.35634549 281.69182167 161.23868617 323.93109102 126.5625 351.375 C125.61246094 352.13941406 124.66242188 352.90382813 123.68359375 353.69140625 C106.12828671 367.63103724 78.03031412 389.01971082 54.5625 387.375 C51.7524654 385.58136089 50.05309532 384.35619065 48.5625 381.375 C48.46236589 379.29980933 48.42689511 377.2213946 48.4206543 375.14379883 C48.41010262 373.17453178 48.41010262 373.17453178 48.39933777 371.16548157 C48.39661393 370.10777274 48.39661393 370.10777274 48.39383507 369.02869606 C48.38664931 366.81059542 48.37095978 364.59271345 48.35249329 362.37467957 C48.30017638 356.0663077 48.25222753 349.75804618 48.23657227 343.44946289 C48.22636533 339.5889438 48.19671153 335.72896253 48.15525246 331.86865807 C48.14309905 330.41019491 48.1377919 328.95165513 48.14005089 327.49314308 C48.15683262 313.0984486 45.96706456 300.3815208 37.5625 288.375 C36.5725 286.89 36.5725 286.89 35.5625 285.375 C36.14515625 285.28001221 36.7278125 285.18502441 37.328125 285.0871582 C59.23217813 281.46016041 81.57726079 276.75398923 98.5625 261.375 C99.23410156 260.79492188 99.90570313 260.21484375 100.59765625 259.6171875 C120.190716 241.57194172 123.34474257 214.51778842 124.7890625 189.44140625 C125.27514089 169.97617609 118.88434046 152.3114749 106.5625 137.375 C106.2325 137.045 105.9025 136.715 105.5625 136.375 C105.6484375 134.51953125 105.6484375 134.51953125 105.9375 132.1875 C106.02773438 131.43082031 106.11796875 130.67414063 106.2109375 129.89453125 C106.45377956 128.15416317 106.74757195 126.42041838 107.08203125 124.6953125 C108.86751436 112.35660808 108.20737897 100.07034841 104.4375 88.2109375 C103.5625 85.375 103.5625 85.375 103.5625 82.375 C90.83298328 83.69664381 80.02716391 86.52025845 68.5 92.1875 C67.8088208 92.5263623 67.1176416 92.86522461 66.40551758 93.21435547 C62.27333798 95.30972533 58.91087979 97.68189817 55.3125 100.625 C50.75520752 103.65635221 47.69697426 103.48591076 42.53540039 102.51953125 C39.02180058 101.73234753 35.5316755 100.86749316 32.04345703 99.97509766 C8.18186902 94.20342049 -19.68633257 96.08290142 -43.24243164 102.09033203 C-49.65179303 103.71568111 -49.65179303 103.71568111 -53.87890625 101.8828125 C-55.42384766 100.70332031 -55.42384766 100.70332031 -57 99.5 C-58.19191911 98.6477986 -59.39013031 97.80434443 -60.59375 96.96875 C-61.21507812 96.535625 -61.83640625 96.1025 -62.4765625 95.65625 C-74.90772498 87.53389682 -88.74602332 83.6200404 -103.4375 82.375 C-104.0887183 85.04045164 -104.73357161 87.70719056 -105.375 90.375 C-105.55740234 91.11878906 -105.73980469 91.86257812 -105.92773438 92.62890625 C-108.89104683 105.02094014 -109.09928346 115.75012673 -106.09375 128.17578125 C-105.49703169 131.08478302 -105.10468915 133.4301282 -105.4375 136.375 C-106.5390625 138.04296875 -106.5390625 138.04296875 -108.0625 139.5625 C-123.49978043 156.38331028 -125.2439344 177.86506336 -124.56298828 199.59716797 C-124.31946669 204.98780733 -123.66211565 210.12368206 -122.4375 215.375 C-122.01791016 217.19837891 -122.01791016 217.19837891 -121.58984375 219.05859375 C-116.47400435 239.62551083 -107.41582968 256.96889292 -89.125 268.6875 C-72.5424199 278.26115014 -55.10916862 282.35827998 -36.4375 285.375 C-37.85612715 288.35411702 -39.51399626 291.04951369 -41.3125 293.8125 C-43.84236825 297.89547682 -45.11329016 301.59315646 -46.25 306.25 C-47.82611084 311.87896729 -47.82611084 311.87896729 -50.5078125 314.0546875 C-52.83029089 315.10478499 -54.95182756 315.82169686 -57.4375 316.375 C-58.17742187 316.55933594 -58.91734375 316.74367188 -59.6796875 316.93359375 C-71.26589597 318.78804355 -83.07078372 318.61808634 -92.8359375 311.66796875 C-98.98430799 306.59604798 -103.4506113 300.51291495 -108.11230469 294.12695312 C-114.11511739 285.96560803 -120.26299555 279.76644335 -130.4375 277.375 C-134.46535267 277.08457564 -138.40890553 277.12580859 -142.4375 277.375 C-142.7675 278.365 -143.0975 279.355 -143.4375 280.375 C-140.18319838 283.74071015 -136.84673066 286.66696045 -133.125 289.5 C-123.99456172 296.96590797 -119.13544699 305.67895281 -114.36645508 316.23168945 C-108.44087494 329.15401788 -100.34737209 336.09826281 -87.26953125 341.39453125 C-82.96545115 342.88463346 -79.00096959 343.50169276 -74.453125 343.5078125 C-73.04933594 343.50974609 -73.04933594 343.50974609 -71.6171875 343.51171875 C-70.16699219 343.50591797 -70.16699219 343.50591797 -68.6875 343.5 C-67.73617187 343.50386719 -66.78484375 343.50773437 -65.8046875 343.51171875 C-64.86367187 343.51042969 -63.92265625 343.50914062 -62.953125 343.5078125 C-62.11040039 343.50668457 -61.26767578 343.50555664 -60.39941406 343.50439453 C-56.3874348 343.32912673 -52.42292537 342.85572078 -48.4375 342.375 C-48.31368851 347.83756275 -48.22306174 353.29930488 -48.1628418 358.76293945 C-48.13773298 360.62050609 -48.10363866 362.47797427 -48.06030273 364.33520508 C-47.99948876 367.00887358 -47.9712548 369.68123365 -47.94921875 372.35546875 C-47.92341232 373.18273972 -47.8976059 374.01001068 -47.87101746 374.86235046 C-47.8689486 379.13769091 -48.06373085 380.8737903 -50.69946289 384.40820312 C-54.76972698 387.33197018 -57.61491224 387.0891217 -62.4375 386.375 C-65.30714811 385.68463461 -67.96450638 384.69421492 -70.6875 383.5625 C-71.44981934 383.2540918 -72.21213867 382.94568359 -72.99755859 382.62792969 C-102.15619502 370.47898883 -130.67735404 351.34252561 -150.4375 326.375 C-151.20191406 325.42496094 -151.96632812 324.47492188 -152.75390625 323.49609375 C-168.69706569 303.41986532 -180.98605713 280.92703958 -188.4375 256.375 C-188.82292969 255.15425781 -189.20835937 253.93351563 -189.60546875 252.67578125 C-190.69868527 248.93538911 -191.61167732 245.18100274 -192.4375 241.375 C-192.61941895 240.56724121 -192.80133789 239.75948242 -192.98876953 238.92724609 C-198.84708895 211.89380085 -199.27380161 181.25829416 -192.4375 154.375 C-192.21255859 153.47168945 -191.98761719 152.56837891 -191.75585938 151.63769531 C-188.84399888 140.1948055 -185.20745972 129.18313426 -180.4375 118.375 C-180.15181152 117.71081055 -179.86612305 117.04662109 -179.57177734 116.36230469 C-170.56737633 95.55148484 -157.47641269 77.20223094 -141.83642578 60.84570312 C-140.46767396 59.40672216 -139.12218369 57.94572824 -137.77734375 56.484375 C-113.02438438 30.11661131 -78.39317495 12.96332556 -43.5625 4.5625 C-42.75603027 4.36769043 -41.94956055 4.17288086 -41.11865234 3.97216797 C-27.41587192 0.83844728 -13.99828791 -0.03106056 0 0 Z M-7.34765625 12.4609375 C-52.72915008 13.93232478 -94.81959803 33.22115578 -127.8125 64 C-128.46637695 64.6091626 -129.12025391 65.2183252 -129.79394531 65.84594727 C-156.68769017 91.35253386 -174.91008342 126.23165194 -182.4375 162.375 C-182.58848145 163.07802246 -182.73946289 163.78104492 -182.89501953 164.50537109 C-187.6017714 187.31813933 -187.13637904 212.59746135 -182.4375 235.375 C-182.27121094 236.19822754 -182.10492188 237.02145508 -181.93359375 237.86962891 C-179.2012498 250.95199056 -174.8588921 263.17622573 -169.4375 275.375 C-169.12441895 276.08108398 -168.81133789 276.78716797 -168.48876953 277.51464844 C-161.41748242 293.15458361 -151.70490054 307.45871157 -140.4375 320.375 C-139.76074219 321.17292969 -139.08398438 321.97085937 -138.38671875 322.79296875 C-134.67415618 327.09665778 -130.82005583 330.98400405 -126.47265625 334.64453125 C-125.11818496 335.79622181 -123.79176635 336.98175576 -122.49609375 338.19921875 C-106.81823089 352.86560659 -83.75342244 368.11181551 -62.4375 372.375 C-62.4375 367.425 -62.4375 362.475 -62.4375 357.375 C-63.85160156 357.28863281 -65.26570313 357.20226562 -66.72265625 357.11328125 C-84.89484487 355.84277822 -102.7386661 352.83756083 -115.4375 338.375 C-115.95948975 337.83456055 -116.48147949 337.29412109 -117.01928711 336.73730469 C-121.81171775 331.61810229 -124.51976364 326.47188927 -127.25 320.0625 C-132.35051576 308.76372741 -138.40982624 300.88711528 -148.6796875 293.71484375 C-151.96137069 291.21347189 -154.58782294 288.07435413 -156.4375 284.375 C-156.55990135 282.60729673 -156.61301153 280.83439538 -156.625 279.0625 C-156.63917969 278.11761719 -156.65335938 277.17273438 -156.66796875 276.19921875 C-156.4230606 273.19805618 -155.77273495 271.0644094 -154.4375 268.375 C-152.625 267.1875 -152.625 267.1875 -150.4375 266.375 C-149.36435547 265.86839844 -149.36435547 265.86839844 -148.26953125 265.3515625 C-138.911219 262.12455827 -128.16162173 263.9491823 -119.3359375 267.828125 C-114.88608521 270.20297879 -111.15685659 272.98215182 -107.4375 276.375 C-106.76203125 276.97054688 -106.0865625 277.56609375 -105.390625 278.1796875 C-100.43838563 282.80561653 -96.97259285 287.98805914 -93.3125 293.6640625 C-89.69588738 298.89308158 -85.30650726 301.9158033 -79.4375 304.375 C-76.63674369 304.60793419 -74.09650015 304.70764193 -71.3125 304.625 C-70.60996094 304.61984375 -69.90742188 304.6146875 -69.18359375 304.609375 C-65.71733812 304.55695526 -62.82266729 304.22129182 -59.4375 303.375 C-58.7775 300.405 -58.1175 297.435 -57.4375 294.375 C-58.7678125 293.9625 -60.098125 293.55 -61.46875 293.125 C-88.57804391 284.52832431 -112.56833329 271.857683 -126.41015625 245.73828125 C-135.34899036 228.02119089 -137.57614922 209.40548346 -137.75 189.8125 C-137.76772461 188.60577637 -137.78544922 187.39905273 -137.80371094 186.15576172 C-137.78762462 166.40443982 -131.26549652 149.61699478 -120.4375 133.375 C-120.41751369 130.44248225 -120.41751369 130.44248225 -120.8125 127.125 C-122.27137247 109.79644164 -122.11347124 91.07437652 -113.4375 75.375 C-107.8695691 70.21105147 -103.07303104 69.89706446 -95.703125 69.98046875 C-79.22821218 71.07698811 -62.95988398 79.36007735 -49.4375 88.375 C-44.1457829 88.73387107 -39.28511998 87.94882707 -34.125 86.9375 C-14.30992557 83.09936232 6.73204651 82.8649739 26.6875 85.8125 C28.03303955 86.00972656 28.03303955 86.00972656 29.40576172 86.2109375 C32.96976115 86.75623414 36.48890488 87.3592653 40.015625 88.11328125 C48.4591832 89.59203275 53.51019824 86.08702892 60.47265625 81.80078125 C73.90057477 73.59855304 91.23485113 67.73096643 106.984375 70.85546875 C110.47364788 72.14754912 112.11162342 73.63418966 114.05078125 76.8203125 C115.47060386 79.96151297 116.5542134 83.07897222 117.5625 86.375 C118.04203125 87.90447266 118.04203125 87.90447266 118.53125 89.46484375 C121.82233733 102.03496896 121.58863852 115.97314089 119.859375 128.7890625 C119.52271416 131.90656652 119.42331508 133.07007514 120.75 135.9765625 C121.348125 136.64429688 121.94625 137.31203125 122.5625 138 C125.86247118 142.20416329 128.17440528 146.32449652 130.3125 151.1875 C130.59351563 151.80254395 130.87453125 152.41758789 131.1640625 153.05126953 C136.1025373 164.52440475 137.07889238 176.15527572 136.9375 188.5 C136.93284729 189.22388916 136.92819458 189.94777832 136.92340088 190.69360352 C136.71853453 217.92206764 131.20556085 243.45412156 112.5625 264.375 C111.89734375 265.13425781 111.2321875 265.89351562 110.546875 266.67578125 C98.56796516 279.51983458 82.79660325 286.32063827 66.26171875 291.26171875 C63.00557346 292.24165688 59.78535485 293.29200028 56.5625 294.375 C56.84254883 295.2302124 57.12259766 296.0854248 57.41113281 296.96655273 C61.67392199 311.4396757 61.23625046 326.33854068 61.30072021 341.28314209 C61.32055644 344.9109097 61.36249238 348.53842246 61.40234375 352.16601562 C61.4768631 359.23557848 61.52762246 366.30512083 61.5625 373.375 C70.58276188 370.11093234 79.4512707 366.82745526 87.9375 362.3125 C88.81470703 361.8477124 89.69191406 361.3829248 90.59570312 360.90405273 C104.45459582 353.36134789 116.81870772 343.8800892 128.06103516 332.84130859 C129.55741581 331.37996515 131.07835514 329.94865875 132.60546875 328.51953125 C166.45769612 296.36918833 183.8298297 249.19510781 185.41967773 203.21264648 C186.4959462 160.22036333 173.04545993 119.35033742 147.4375 84.875 C146.71965332 83.90530273 146.71965332 83.90530273 145.98730469 82.91601562 C142.96842406 78.94434582 139.71920679 75.3955319 136.12524414 71.93554688 C134.5625 70.375 134.5625 70.375 132.125 67.375 C128.91148533 63.61283648 125.34947762 60.54488864 121.5625 57.375 C120.35787109 56.33859375 120.35787109 56.33859375 119.12890625 55.28125 C83.41568145 25.13992506 39.04391715 11.44134248 -7.34765625 12.4609375 Z " fill="#34383E" transform="translate(255.4375,58.625)"/>
<path d="M0 0 C0.97088562 0.00215515 1.94177124 0.0043103 2.94207764 0.00653076 C17.27751026 0.05757173 31.28525803 0.44028152 45.375 3.3125 C46.40109375 3.51649414 47.4271875 3.72048828 48.484375 3.93066406 C83.03103255 10.96074515 116.61097294 23.58881121 145.375 44.3125 C145.97731445 44.74643066 146.57962891 45.18036133 147.20019531 45.62744141 C167.20967528 60.12958812 186.4267953 76.50039905 201.375 96.3125 C201.88595215 96.97411133 202.3969043 97.63572266 202.92333984 98.31738281 C211.77074344 109.78950773 219.50358371 121.56016726 226.375 134.3125 C226.73255371 134.96718262 227.09010742 135.62186523 227.45849609 136.29638672 C239.59564722 158.70923389 247.47234292 182.73995315 252.625 207.625 C252.77630371 208.35178955 252.92760742 209.0785791 253.08349609 209.82739258 C256.06416968 225.16354759 256.74985124 240.35335883 256.6875 255.9375 C256.68534485 256.90838562 256.6831897 257.87927124 256.68096924 258.87957764 C256.62992827 273.21501026 256.24721848 287.22275803 253.375 301.3125 C253.17100586 302.33859375 252.96701172 303.3646875 252.75683594 304.421875 C245.72675485 338.96853255 233.09868879 372.54847294 212.375 401.3125 C211.94106934 401.91481445 211.50713867 402.51712891 211.06005859 403.13769531 C196.55791188 423.14717528 180.18710095 442.3642953 160.375 457.3125 C159.71338867 457.82345215 159.05177734 458.3344043 158.37011719 458.86083984 C146.89799227 467.70824344 135.12733274 475.44108371 122.375 482.3125 C121.72031738 482.67005371 121.06563477 483.02760742 120.39111328 483.39599609 C97.97826611 495.53314722 73.94754685 503.40984292 49.0625 508.5625 C48.33571045 508.71380371 47.6089209 508.86510742 46.86010742 509.02099609 C31.52395241 512.00166968 16.33414117 512.68735124 0.75 512.625 C-0.22088562 512.62284485 -1.19177124 512.6206897 -2.19207764 512.61846924 C-16.52751026 512.56742827 -30.53525803 512.18471848 -44.625 509.3125 C-46.16414063 509.00650879 -46.16414063 509.00650879 -47.734375 508.69433594 C-82.28103255 501.66425485 -115.86097294 489.03618879 -144.625 468.3125 C-145.22731445 467.87856934 -145.82962891 467.44463867 -146.45019531 466.99755859 C-166.45967528 452.49541188 -185.6767953 436.12460095 -200.625 416.3125 C-201.39142822 415.32008301 -201.39142822 415.32008301 -202.17333984 414.30761719 C-211.02074344 402.83549227 -218.75358371 391.06483274 -225.625 378.3125 C-225.98255371 377.65781738 -226.34010742 377.00313477 -226.70849609 376.32861328 C-238.84564722 353.91576611 -246.72234292 329.88504685 -251.875 305 C-252.02630371 304.27321045 -252.17760742 303.5464209 -252.33349609 302.79760742 C-255.31416968 287.46145241 -255.99985124 272.27164117 -255.9375 256.6875 C-255.93534485 255.71661438 -255.9331897 254.74572876 -255.93096924 253.74542236 C-255.87992827 239.40998974 -255.49721848 225.40224197 -252.625 211.3125 C-252.42100586 210.28640625 -252.21701172 209.2603125 -252.00683594 208.203125 C-239.9873309 149.1378426 -208.34678893 92.07302712 -159.625 55.3125 C-158.96338867 54.80154785 -158.30177734 54.2905957 -157.62011719 53.76416016 C-146.14799227 44.91675656 -134.37733274 37.18391629 -121.625 30.3125 C-120.97031738 29.95494629 -120.31563477 29.59739258 -119.64111328 29.22900391 C-97.22826611 17.09185278 -73.19754685 9.21515708 -48.3125 4.0625 C-47.58571045 3.91119629 -46.8589209 3.75989258 -46.11010742 3.60400391 C-30.77395241 0.62333032 -15.58414117 -0.06235124 0 0 Z M-28.86157227 13.81445312 C-32.42460043 14.28597939 -35.98551276 14.6537522 -39.5625 15 C-63.61920789 18.29438993 -88.28111986 26.69615207 -109.63134766 38.23535156 C-111.74940675 39.3797156 -113.88041635 40.49770612 -116.01171875 41.6171875 C-135.43065337 51.96670156 -152.7122217 65.14953848 -168.625 80.3125 C-169.22538086 80.88419922 -169.82576172 81.45589844 -170.44433594 82.04492188 C-179.33660845 90.57452556 -187.31886999 99.39462552 -194.625 109.3125 C-195.04587891 109.87259766 -195.46675781 110.43269531 -195.90039062 111.00976562 C-214.16217764 135.33076307 -227.36642841 163.08072141 -235.625 192.3125 C-235.98335937 193.5809375 -236.34171875 194.849375 -236.7109375 196.15625 C-242.01362003 215.7263169 -243.85513287 235.83747157 -243.875 256.0625 C-243.87600708 256.78116241 -243.87701416 257.49982483 -243.87805176 258.24026489 C-243.86044225 276.97030874 -241.67141471 295.15663941 -237.11474609 313.33642578 C-236.66161722 315.16475333 -236.24517465 317.00206794 -235.83203125 318.83984375 C-226.40054644 358.20411604 -204.68264008 395.77389299 -176.375 424.53173828 C-174.60943884 426.3283347 -172.86658404 428.14502449 -171.125 429.96484375 C-163.49290404 437.85993186 -155.4498746 444.78998234 -146.625 451.3125 C-146.06345215 451.7348291 -145.5019043 452.1571582 -144.92333984 452.59228516 C-120.57497942 470.87286842 -92.85978943 483.98118655 -63.625 492.3125 C-62.49578125 492.65925781 -61.3665625 493.00601562 -60.203125 493.36328125 C-28.32670216 502.37637461 8.93229631 503.66403383 41.375 497.3125 C42.17131836 497.1573291 42.96763672 497.0021582 43.78808594 496.84228516 C48.34068912 495.93046325 52.85842206 494.91192795 57.36669922 493.80224609 C59.20934354 493.35289714 61.05950006 492.93465081 62.91015625 492.51953125 C102.2751235 483.06661352 139.83001246 461.37642072 168.59423828 433.0625 C170.3908347 431.29693884 172.20752449 429.55408404 174.02734375 427.8125 C181.92243186 420.18040404 188.85248234 412.1373746 195.375 403.3125 C195.7973291 402.75095215 196.2196582 402.1894043 196.65478516 401.61083984 C235.72768734 349.56867624 250.98671759 283.9893238 242.28149414 219.86694336 C238.53465147 194.45596636 230.69134737 168.95154342 218.45214844 146.30615234 C217.3077844 144.18809325 216.18979388 142.05708365 215.0703125 139.92578125 C204.72079844 120.50684663 191.53796152 103.2252783 176.375 87.3125 C175.80330078 86.71211914 175.23160156 86.11173828 174.64257812 85.49316406 C166.11297444 76.60089155 157.29287448 68.61863001 147.375 61.3125 C146.81490234 60.89162109 146.25480469 60.47074219 145.67773438 60.03710938 C111.05308049 34.03866684 70.925431 19.56854232 28.375 13.3125 C27.3228833 13.15019897 27.3228833 13.15019897 26.24951172 12.98461914 C19.09844071 12.02273402 11.87816353 12.1264316 4.67626953 12.12719727 C2.40768061 12.1250312 0.13959576 12.10688113 -2.12890625 12.08789062 C-11.14823615 12.05380646 -19.92125905 12.61804186 -28.86157227 13.81445312 Z " fill="#34373B" transform="translate(255.625,-0.3125)"/>
<path d="M0 0 C0 23.43 0 46.86 0 71 C-8.58 71.66 -17.16 72.32 -26 73 C-32.77153327 74.12320028 -32.77153327 74.12320028 -39.51171875 75.4140625 C-46.64833004 76.6128214 -50.55668956 76.1726163 -56.75 72.3125 C-57.98632887 71.56965757 -59.22463146 70.83009056 -60.46484375 70.09375 C-61.06796387 69.7328125 -61.67108398 69.371875 -62.29248047 69 C-74.88948691 61.6226282 -91.25637577 55.73465441 -106 58 C-110.92969921 60.08995631 -113.76417089 62.11843978 -116 67 C-121.20789097 81.01535365 -123.60137476 95.70480703 -121.48828125 110.609375 C-120.27697666 119.33076802 -121.80754788 123.46882771 -126.796875 130.65625 C-129.14282758 134.06780799 -130.77961116 137.60102681 -132.3125 141.4375 C-132.76238281 142.54996094 -133.21226562 143.66242188 -133.67578125 144.80859375 C-137.33000459 155.56078937 -138.47847792 166.13742134 -138.3125 177.4375 C-138.3012207 178.70867676 -138.28994141 179.97985352 -138.27832031 181.28955078 C-138.15090774 190.00613577 -137.78913195 198.4450702 -136 207 C-135.75507813 208.19625 -135.51015625 209.3925 -135.2578125 210.625 C-129.93413198 233.23886415 -117.50728289 252.85572223 -97.74633789 265.53930664 C-85.4042537 273.11201661 -71.90037568 278.10789481 -58 282 C-58.66 284.97 -59.32 287.94 -60 291 C-67.77056608 292.94264152 -77.80680253 293.75297048 -85.125 289.9375 C-90.87613894 286.03805352 -94.46548326 280.80309107 -98.3125 275.125 C-105.50831539 264.74156463 -114.99711254 256.1688016 -127.30859375 252.46875 C-130.93096049 251.83785884 -134.51981793 251.67755037 -138.1875 251.625 C-138.86506348 251.61098145 -139.54262695 251.59696289 -140.24072266 251.58251953 C-144.90760668 251.62718419 -147.97937211 252.70748569 -152 255 C-152.99 255.33 -153.98 255.66 -155 256 C-157.68701956 261.13058433 -157.65107029 266.34904377 -157 272 C-154.09290105 278.29871439 -148.22032759 282.40082174 -142.9140625 286.68359375 C-135.18793392 293.09243221 -131.20738033 300.42195756 -127.125 309.4375 C-120.33292756 324.23354168 -110.53309052 333.77333002 -95.375 339.9375 C-84.69937081 343.65353839 -74.19655943 344.38367563 -63 345 C-63 349.95 -63 354.9 -63 360 C-69.64353328 358.12693335 -75.83839105 355.97712253 -82.0625 353 C-82.87614014 352.61118652 -83.68978027 352.22237305 -84.52807617 351.82177734 C-101.66768419 343.41228856 -117.92449029 331.94292682 -131 318 C-131.825 317.175 -132.65 316.35 -133.5 315.5 C-134.325 314.675 -135.15 313.85 -136 313 C-136.83917969 312.23042969 -136.83917969 312.23042969 -137.6953125 311.4453125 C-148.60866303 301.15053244 -156.76312557 288.04581533 -164 275 C-164.34659668 274.37544922 -164.69319336 273.75089844 -165.05029297 273.10742188 C-187.4980374 231.98661244 -192.57638808 181.15712568 -179.75 136.1875 C-173.4597931 115.80802118 -164.48067957 96.33166068 -152 79 C-151.27554688 77.989375 -150.55109375 76.97875 -149.8046875 75.9375 C-145.01508849 69.48813896 -139.85489815 63.49909134 -134.375 57.625 C-133.4612561 56.64418457 -133.4612561 56.64418457 -132.52905273 55.64355469 C-104.74779766 26.35143506 -67.41375934 8.76339339 -28 2 C-26.51693359 1.71962891 -26.51693359 1.71962891 -25.00390625 1.43359375 C-20.96886346 0.85116235 -16.94449668 0.63997904 -12.875 0.4375 C-12.07707031 0.39431641 -11.27914062 0.35113281 -10.45703125 0.30664062 C-6.96041586 0.12276185 -3.50405027 0 0 0 Z " fill="#559EEE" transform="translate(256,71)"/>
</svg>
