<?xml version="1.0" standalone="no"?>
<!DOCTYPE svg PUBLIC "-//W3C//DTD SVG 20010904//EN"
 "http://www.w3.org/TR/2001/REC-SVG-20010904/DTD/svg10.dtd">
<svg version="1.0" xmlns="http://www.w3.org/2000/svg"
 width="300.000000pt" height="461.000000pt" viewBox="0 0 300.000000 461.000000"
 preserveAspectRatio="xMidYMid meet">
<metadata>
Created by potrace 1.10, written by Peter Selinger 2001-2011
</metadata>
<g transform="translate(0.000000,461.000000) scale(0.100000,-0.100000)"
fill="#000000" stroke="none">
<path d="M612 4529 l-102 -70 0 -909 0 -909 -97 -4 -98 -3 103 -2 102 -2 0
913 0 912 98 67 97 67 5 -807 5 -807 3 813 c1 446 -2 812 -6 812 -5 0 -54 -32
-110 -71z"/>
<path d="M243 4277 c-29 -22 -50 -43 -48 -46 3 -2 24 12 47 31 24 19 52 40 63
46 14 8 15 11 5 11 -8 0 -38 -19 -67 -42z"/>
<path d="M142 4202 l-32 -27 0 -867 c0 -477 3 -869 8 -871 4 -3 6 388 4 869
-1 481 1 874 5 874 11 1 57 40 52 44 -2 3 -19 -8 -37 -22z"/>
<path d="M723 2815 c0 -38 2 -53 4 -32 2 20 2 52 0 70 -2 17 -4 1 -4 -38z"/>
<path d="M724 2648 c2 -10 209 -14 1039 -16 l1036 -2 4 -33 c4 -31 4 -31 5 6
l2 37 -1039 0 c-700 0 -1041 3 -1044 10 -3 6 -4 5 -3 -2z"/>
<path d="M2810 2490 l6 -50 -530 -2 -531 -3 -3 -1062 c-1 -585 -5 -1063 -8
-1063 -4 0 -22 9 -40 21 -19 11 -34 18 -34 16 0 -8 66 -47 79 -47 8 0 11 279
11 1065 l0 1065 528 0 c291 0 531 2 533 4 7 7 -2 106 -10 106 -4 0 -5 -22 -1
-50z"/>
<path d="M312 2243 c109 -2 287 -2 395 0 109 1 20 2 -197 2 -217 0 -306 -1
-198 -2z"/>
<path d="M1143 2243 c37 -2 97 -2 135 0 37 2 6 3 -68 3 -74 0 -105 -1 -67 -3z"/>
<path d="M1413 2243 c26 -2 68 -2 95 0 26 2 4 3 -48 3 -52 0 -74 -1 -47 -3z"/>
<path d="M1947 2243 c-4 -3 -7 -469 -7 -1034 l0 -1028 76 -46 c42 -25 78 -44
81 -42 2 3 -30 24 -71 48 l-76 43 0 1027 0 1028 53 4 52 3 -51 2 c-28 1 -54
-1 -57 -5z"/>
<path d="M2438 2243 c34 -2 90 -2 125 0 34 2 6 3 -63 3 -69 0 -97 -1 -62 -3z"/>
<path d="M2760 2242 l125 -3 32 -57 c37 -65 72 -112 73 -96 0 5 -9 19 -19 31
-11 11 -34 46 -51 77 l-32 56 -126 -2 -127 -2 125 -4z"/>
<path d="M114 2133 l1 -98 718 0 717 0 -715 2 -714 3 -4 95 -3 95 0 -97z"/>
<path d="M2157 2033 c-4 -3 -7 -447 -7 -985 0 -538 -4 -978 -8 -978 -4 0 -13
4 -20 10 -7 5 -6 3 2 -6 8 -9 19 -13 25 -10 8 5 11 287 11 986 l0 980 423 3
422 2 -421 3 c-231 1 -424 -1 -427 -5z"/>
</g>
</svg>
