<?xml version="1.0" encoding="UTF-8"?>
<svg version="1.1" xmlns="http://www.w3.org/2000/svg" width="512" height="512">
<path d="M0 0 C9.64170305 7.65482554 17.93460185 16.18359841 25.77734375 25.65625 C27.870967 28.13663419 29.99704095 30.44215931 32.3359375 32.6875 C33.11735107 32.33353149 33.11735107 32.33353149 33.91455078 31.97241211 C52.09307842 23.8017757 70.56843929 16.79951168 90.3359375 13.6875 C91.49996094 13.49220703 91.49996094 13.49220703 92.6875 13.29296875 C111.50485809 10.65008138 130.22958776 13.25932101 146.3359375 23.6875 C158.06860235 32.7983403 164.96363901 46.83948814 167.01953125 61.37890625 C168.75410678 79.51699848 165.73540534 97.36350207 160.3359375 114.6875 C160.00432617 115.76209473 160.00432617 115.76209473 159.66601562 116.85839844 C147.09419719 156.80543669 124.41357568 195.33249961 98.6015625 228.21484375 C97.85390625 229.17519531 97.10625 230.13554687 96.3359375 231.125 C95.6965625 231.90746094 95.0571875 232.68992188 94.3984375 233.49609375 C93.09540279 235.6316304 93.09540279 235.6316304 93.75390625 237.9375 C96.06674957 241.95784986 98.83807907 245.5663046 101.6484375 249.25 C114.59076189 266.55035191 125.73126047 284.87840821 136.3359375 303.6875 C136.80660645 304.5213623 137.27727539 305.35522461 137.76220703 306.21435547 C151.12567344 330.12508151 162.05760087 356.51150574 166.3359375 383.6875 C166.46613281 384.46351563 166.59632813 385.23953125 166.73046875 386.0390625 C169.418644 405.17887031 166.93586248 424.74161576 155.1953125 440.57421875 C144.9094813 452.60432552 131.08061537 459.32004909 115.3359375 460.6875 C86.19261074 462.43672433 57.56151427 452.54111334 31.3359375 440.6875 C30.64628906 441.50992187 29.95664062 442.33234375 29.24609375 443.1796875 C26.77062842 446.12523403 24.28132291 449.05872643 21.78466797 451.98632812 C20.53787257 453.45037773 19.29759582 454.91997417 18.05859375 456.390625 C2.93977605 473.8462432 -19.99037869 490.5232914 -43.6640625 492.6875 C-74.33003498 494.58599529 -98.59969696 486.71914696 -121.65356445 466.41894531 C-128.0230175 460.6494512 -133.63019419 454.33191781 -139.10546875 447.71875 C-141.199092 445.23836581 -143.32516595 442.93284069 -145.6640625 440.6875 C-146.2216626 440.93395264 -146.7792627 441.18040527 -147.35375977 441.43432617 C-176.62157262 454.31697415 -213.78150442 469.00472412 -245.72949219 456.90527344 C-260.94547435 450.55883838 -270.294612 440.96691965 -276.9140625 425.8125 C-288.49810641 394.72864884 -275.3087938 358.27334877 -262.6640625 329.6875 C-262.28266113 328.82157227 -261.90125977 327.95564453 -261.50830078 327.06347656 C-248.69781072 298.31719265 -231.58322846 270.09464756 -212.0625 245.359375 C-211.31226563 244.39515625 -210.56203125 243.4309375 -209.7890625 242.4375 C-209.13164062 241.62796875 -208.47421875 240.8184375 -207.796875 239.984375 C-206.35162684 237.72027673 -206.35162684 237.72027673 -207.41381836 235.296875 C-208.6023108 232.8163815 -209.86813063 230.82015285 -211.53515625 228.640625 C-212.10379395 227.88724854 -212.67243164 227.13387207 -213.25830078 226.35766602 C-213.86657715 225.55901123 -214.47485352 224.76035645 -215.1015625 223.9375 C-221.7151271 215.09823284 -227.85529972 206.07263829 -233.6640625 196.6875 C-234.37876709 195.53411133 -234.37876709 195.53411133 -235.10791016 194.35742188 C-259.60889907 154.60688829 -289.96507661 102.16199194 -278.82421875 53.453125 C-274.45481503 39.27095265 -267.25341638 27.67780676 -254.01757812 20.30859375 C-230.75038766 8.24082606 -204.0462594 11.77199162 -179.90136719 19.28149414 C-167.91752792 23.14392673 -156.2374923 27.73372133 -144.6640625 32.6875 C-143.95121094 31.841875 -143.23835937 30.99625 -142.50390625 30.125 C-140.01754928 27.17767454 -137.52303327 24.2373488 -135.02685547 21.29833984 C-133.93116597 20.00321994 -132.84489944 18.70013097 -131.76171875 17.39453125 C-98.14100791 -22.47354884 -42.42176786 -32.4638932 0 0 Z M-111.9765625 41.8125 C-114.5649693 45.09751546 -114.5649693 45.09751546 -116.6640625 48.6875 C-115.68050781 49.24695313 -114.69695312 49.80640625 -113.68359375 50.3828125 C-96.25744376 60.40513913 -78.42251909 71.29342004 -62.90527344 84.14404297 C-61.20029247 85.5048108 -59.606874 86.69482049 -57.6640625 87.6875 C-53.17010633 86.99398825 -49.7181915 83.65877344 -46.1640625 80.9375 C-30.35495767 69.11784944 -13.6900901 58.65139137 3.3359375 48.6875 C-9.44625043 31.52760117 -25.68974822 15.55962587 -47.6640625 11.6875 C-73.79224783 8.98041697 -95.69935614 22.16137903 -111.9765625 41.8125 Z M-243.6640625 51.6875 C-250.98719736 61.78155076 -250.20345526 73.84041657 -248.6640625 85.6875 C-242.68263482 123.210526 -221.78677209 157.24654791 -201.6640625 188.6875 C-201.23577148 189.35845703 -200.80748047 190.02941406 -200.36621094 190.72070312 C-199.49456055 192.06230723 -198.5851243 193.37932527 -197.6640625 194.6875 C-197.3340625 194.6875 -197.0040625 194.6875 -196.6640625 194.6875 C-196.54401855 193.71329102 -196.42397461 192.73908203 -196.30029297 191.73535156 C-190.59501154 145.84516782 -180.24027698 102.75858943 -160.6640625 60.6875 C-180.23737812 49.81873791 -224.55398675 32.04212801 -243.6640625 51.6875 Z M70.2734375 51.0625 C69.14446045 51.43753662 68.0154834 51.81257324 66.85229492 52.19897461 C60.05618213 54.53939443 53.66780667 57.28468909 47.3359375 60.6875 C47.88121094 61.8528125 48.42648437 63.018125 48.98828125 64.21875 C68.24601751 105.86117857 78.12427093 149.27956849 83.3359375 194.6875 C97.61272267 177.08247694 108.70598767 156.13745033 118.3359375 135.6875 C118.67077148 134.98061035 119.00560547 134.2737207 119.35058594 133.54541016 C129.37209271 112.21794998 142.53627693 82.46096111 134.3359375 58.6875 C131.38394968 52.59549965 127.81787996 48.00156624 121.3359375 45.6875 C104.19087432 40.83300584 86.67723178 45.60651625 70.2734375 51.0625 Z M-133.6640625 75.6875 C-149.8303875 107.71180047 -165.58935526 150.29544268 -164.6640625 186.6875 C-159.55762618 182.46260959 -155.01578859 178.00375092 -150.5390625 173.125 C-144.04382461 166.1388792 -137.40470038 159.31204935 -130.6640625 152.5625 C-129.79249512 151.68650146 -128.92092773 150.81050293 -128.02294922 149.90795898 C-123.65710939 145.5517466 -119.22741488 141.34631926 -114.54931641 137.32763672 C-111.39520275 134.58361503 -108.38497663 131.68836565 -105.3515625 128.8125 C-100.06098233 123.82287502 -94.68250012 119.11194086 -88.93359375 114.65234375 C-86.491362 112.53798476 -84.60521009 110.26230957 -82.6640625 107.6875 C-92.25532487 99.99780965 -102.24993305 93.20988233 -112.6640625 86.6875 C-113.47794434 86.17380859 -114.29182617 85.66011719 -115.13037109 85.13085938 C-117.59452591 83.57837963 -120.06530925 82.03713064 -122.5390625 80.5 C-123.30629639 80.01797119 -124.07353027 79.53594238 -124.86401367 79.03930664 C-125.57920166 78.59965576 -126.29438965 78.16000488 -127.03125 77.70703125 C-127.66144043 77.31620361 -128.29163086 76.92537598 -128.94091797 76.52270508 C-130.79484816 75.46941799 -130.79484816 75.46941799 -133.6640625 75.6875 Z M12.71484375 78.2578125 C11.78849121 78.81799072 10.86213867 79.37816895 9.90771484 79.95532227 C8.91465332 80.56819092 7.9215918 81.18105957 6.8984375 81.8125 C5.87959473 82.43761475 4.86075195 83.06272949 3.81103516 83.70678711 C-3.18191037 88.04202321 -10.03823721 92.54700729 -16.7890625 97.25 C-17.61075928 97.82057129 -18.43245605 98.39114258 -19.27905273 98.97900391 C-23.45905424 101.93850628 -27.17955783 104.93011244 -30.6640625 108.6875 C-21.22396817 117.4570627 -21.22396817 117.4570627 -11.58984375 126.01171875 C1.86690906 137.7215503 14.76951459 150.03254173 27.3984375 162.625 C28.71871948 163.93839355 28.71871948 163.93839355 30.06567383 165.27832031 C34.47670119 169.69988323 38.74684689 174.17000473 42.76953125 178.94946289 C45.37436558 181.83970847 48.32534009 184.22986946 51.3359375 186.6875 C50.8002597 176.75704251 49.12787288 167.17269219 47.2109375 157.4375 C47.0563205 156.64647888 46.90170349 155.85545776 46.74240112 155.04046631 C44.04551829 141.33745125 40.77262811 127.94329315 36.3359375 114.6875 C36.02011719 113.74245605 35.70429688 112.79741211 35.37890625 111.82373047 C31.15638976 99.37697992 26.20029599 87.44741038 20.3359375 75.6875 C16.83287161 75.6875 15.6769022 76.46225542 12.71484375 78.2578125 Z M-57.6640625 128.6875 C-64.05195688 133.82453293 -70.27845861 139.0591244 -76.33984375 144.578125 C-78.38448585 146.43376657 -80.45190399 148.25506376 -82.5390625 150.0625 C-92.28812706 158.57824917 -101.57315702 167.47784539 -110.6640625 176.6875 C-113.93387697 179.9633878 -117.21425292 183.228383 -120.5 186.48828125 C-122.34642599 188.32544865 -124.19277796 190.16269045 -126.0390625 192 C-126.95945313 192.91201172 -127.87984375 193.82402344 -128.828125 194.76367188 C-133.44442226 199.36348236 -137.93480471 204.00209059 -142.17529297 208.95141602 C-144.23729943 211.35596307 -146.38981624 213.67345901 -148.5390625 216 C-158.12067785 225.85731353 -158.12067785 225.85731353 -164.6640625 237.6875 C-159.52702957 244.07539438 -154.2924381 250.30189611 -148.7734375 256.36328125 C-146.91779593 258.40792335 -145.09649874 260.47534149 -143.2890625 262.5625 C-134.89977536 272.16400065 -126.1494078 281.32998175 -117.07983398 290.28808594 C-113.38940485 293.9358769 -109.7370965 297.62154563 -106.08203125 301.3046875 C-104.33861077 303.0573604 -102.59511915 304.80996256 -100.8515625 306.5625 C-99.98724609 307.43519531 -99.12292969 308.30789063 -98.23242188 309.20703125 C-93.75698141 313.69936017 -89.23113595 318.05225857 -84.41772461 322.18115234 C-82.00863098 324.2504977 -79.68416077 326.40765805 -77.3515625 328.5625 C-67.49424897 338.14411535 -67.49424897 338.14411535 -55.6640625 344.6875 C-49.27616812 339.55046707 -43.04966639 334.3158756 -36.98828125 328.796875 C-34.94363915 326.94123343 -32.87622101 325.11993624 -30.7890625 323.3125 C-21.18756185 314.92321286 -12.02158075 306.1728453 -3.06347656 297.10327148 C0.5843144 293.41284235 4.26998313 289.760534 7.953125 286.10546875 C9.7057979 284.36204827 11.45840006 282.61855665 13.2109375 280.875 C14.08363281 280.01068359 14.95632813 279.14636719 15.85546875 278.25585938 C20.34779767 273.78041891 24.70069607 269.25457345 28.82958984 264.44116211 C30.8989352 262.03206848 33.05609555 259.70759827 35.2109375 257.375 C44.79255285 247.51768647 44.79255285 247.51768647 51.3359375 235.6875 C46.19890457 229.29960562 40.9643131 223.07310389 35.4453125 217.01171875 C33.58967093 214.96707665 31.76837374 212.89965851 29.9609375 210.8125 C21.57165036 201.21099935 12.8212828 192.04501825 3.75170898 183.08691406 C0.06127985 179.4391231 -3.5910285 175.75345437 -7.24609375 172.0703125 C-8.98951423 170.3176396 -10.73300585 168.56503744 -12.4765625 166.8125 C-13.77303711 165.50345703 -13.77303711 165.50345703 -15.09570312 164.16796875 C-19.57114359 159.67563983 -24.09698905 155.32274143 -28.91040039 151.19384766 C-31.31949402 149.1245023 -33.64396423 146.96734195 -35.9765625 144.8125 C-45.83387603 135.23088465 -45.83387603 135.23088465 -57.6640625 128.6875 Z M-197.6640625 278.6875 C-198.62866934 280.04129703 -199.542929 281.43096898 -200.4375 282.83203125 C-201.29577393 284.17479126 -201.29577393 284.17479126 -202.17138672 285.54467773 C-202.78771973 286.51993408 -203.40405273 287.49519043 -204.0390625 288.5 C-204.6695752 289.49523682 -205.30008789 290.49047363 -205.94970703 291.51586914 C-211.34210034 300.07981785 -216.51988504 308.74849298 -221.47509766 317.57226562 C-222.22704855 318.91002796 -222.98391752 320.24504809 -223.74755859 321.57617188 C-238.33737206 347.03340971 -255.76024989 383.88505071 -247.63671875 413.84765625 C-245.59278329 419.81529109 -242.49584359 424.0343186 -236.71484375 426.90625 C-215.06631505 435.15330855 -187.16217692 425.07747286 -167.17578125 416.125 C-164.97083126 415.02720312 -162.8164097 413.8826654 -160.6640625 412.6875 C-161.20933594 411.5221875 -161.75460938 410.356875 -162.31640625 409.15625 C-181.57414251 367.51382143 -191.45239593 324.09543151 -196.6640625 278.6875 C-196.9940625 278.6875 -197.3240625 278.6875 -197.6640625 278.6875 Z M83.3359375 278.6875 C83.21589355 279.66170898 83.09584961 280.63591797 82.97216797 281.63964844 C77.28680954 327.3677999 67.50360054 370.96647057 47.3359375 412.6875 C54.75052397 416.6721742 62.29174662 419.66104984 70.2734375 422.3125 C71.45333252 422.70493896 72.63322754 423.09737793 73.84887695 423.50170898 C90.24794202 428.78400915 109.12309492 433.39982637 125.51953125 425.65625 C131.60131671 421.78483388 133.91717781 415.96447051 135.6484375 409.1875 C142.93087865 366.21453645 109.48816977 317.50513715 87.75537109 283.68261719 C86.41801043 281.80285947 85.01872475 280.25876599 83.3359375 278.6875 Z M-164.6640625 286.6875 C-162.16180226 324.6158277 -150.97713896 363.8483051 -133.6640625 397.6875 C-129.66208156 397.10854915 -126.93760849 395.87364101 -123.5234375 393.73046875 C-122.54286377 393.11800293 -121.56229004 392.50553711 -120.55200195 391.87451172 C-119.51648193 391.21467285 -118.48096191 390.55483398 -117.4140625 389.875 C-116.34953857 389.20227051 -115.28501465 388.52954102 -114.18823242 387.83642578 C-107.69666611 383.70396466 -101.27783276 379.48003848 -94.9765625 375.0625 C-94.30141602 374.59094482 -93.62626953 374.11938965 -92.93066406 373.63354492 C-89.14188553 370.92609428 -85.8617137 368.07468694 -82.6640625 364.6875 C-92.10415683 355.9179373 -92.10415683 355.9179373 -101.73828125 347.36328125 C-115.19503406 335.6534497 -128.09763959 323.34245827 -140.7265625 310.75 C-142.04684448 309.43660645 -142.04684448 309.43660645 -143.39379883 308.09667969 C-147.80482619 303.67511677 -152.07497189 299.20499527 -156.09765625 294.42553711 C-158.70249058 291.53529153 -161.65346509 289.14513054 -164.6640625 286.6875 Z M46.32421875 290.5625 C45.52564453 291.366875 45.52564453 291.366875 44.7109375 292.1875 C44.20175781 292.6928125 43.69257813 293.198125 43.16796875 293.71875 C40.38998376 296.50369736 37.74028696 299.35025897 35.18359375 302.33984375 C30.6981019 307.51798476 25.84436428 312.32885113 20.9934082 317.16040039 C19.40134784 318.74709946 17.8147076 320.33907742 16.22851562 321.93164062 C11.3383983 326.82495588 6.41027955 331.62206644 1.14868164 336.11987305 C-1.98764568 338.83210978 -4.96807986 341.71027096 -7.9765625 344.5625 C-13.26714267 349.55212498 -18.64562488 354.26305914 -24.39453125 358.72265625 C-26.836763 360.83701524 -28.72291491 363.11269043 -30.6640625 365.6875 C-21.07280013 373.37719035 -11.07819195 380.16511767 -0.6640625 386.6875 C0.14981934 387.20119141 0.96370117 387.71488281 1.80224609 388.24414062 C4.26640091 389.79662037 6.73718425 391.33786936 9.2109375 392.875 C10.36178833 393.59804321 10.36178833 393.59804321 11.53588867 394.33569336 C12.25107666 394.77534424 12.96626465 395.21499512 13.703125 395.66796875 C14.33331543 396.05879639 14.96350586 396.44962402 15.61279297 396.85229492 C17.46672316 397.90558201 17.46672316 397.90558201 20.3359375 397.6875 C27.19430072 384.10158702 32.5152436 370.11454758 37.3359375 355.6875 C37.62210937 354.83269043 37.90828125 353.97788086 38.203125 353.09716797 C42.16059007 340.99212475 44.6967676 328.60334689 47.1484375 316.125 C47.37844452 314.96271378 47.37844452 314.96271378 47.61309814 313.77694702 C49.3829676 304.76156241 50.84836208 295.88225749 51.3359375 286.6875 C49.15630039 286.6875 47.78376491 289.1066677 46.32421875 290.5625 Z M-61.05859375 388.0390625 C-62.10442627 388.81068726 -62.10442627 388.81068726 -63.17138672 389.59790039 C-63.93209473 390.16371826 -64.69280273 390.72953613 -65.4765625 391.3125 C-81.96316616 403.37989372 -99.03410226 414.37017802 -116.6640625 424.6875 C-103.88187457 441.84739883 -87.63837678 457.81537413 -65.6640625 461.6875 C-48.03642861 463.51385985 -32.8644228 458.90935356 -18.7890625 448.0625 C-17.41112816 446.94109599 -16.03570265 445.81659402 -14.6640625 444.6875 C-13.7978125 444.048125 -12.9315625 443.40875 -12.0390625 442.75 C-6.04463047 437.54430903 -1.30973722 431.08593845 3.3359375 424.6875 C2.35238281 424.12804687 1.36882812 423.56859375 0.35546875 422.9921875 C-17.29182237 412.84267565 -34.19371009 401.44740846 -50.52832031 389.30126953 C-55.77962633 385.26711572 -55.77962633 385.26711572 -61.05859375 388.0390625 Z " fill="#000000" transform="translate(312.6640625,19.3125)"/>
<path d="M0 0 C11.67828536 12.27052804 15.82134757 26.52347714 15.6875 43.1875 C14.83950797 55.84680966 10.13081413 66.7767228 1.6875 76.1875 C1.06875 76.88746094 0.45 77.58742188 -0.1875 78.30859375 C-10.4643998 89.2692389 -23.49638108 94.43455557 -38.38037109 95.16381836 C-53.22106627 95.56314345 -66.23982419 91.12186335 -77.3125 81.1875 C-78.01246094 80.56875 -78.71242187 79.95 -79.43359375 79.3125 C-90.3942389 69.0356002 -95.55955557 56.00361892 -96.28881836 41.11962891 C-96.68814345 26.27893373 -92.24686335 13.26017581 -82.3125 2.1875 C-81.69375 1.48753906 -81.075 0.78757813 -80.4375 0.06640625 C-71.72047247 -9.2305848 -59.55065289 -15.70932059 -46.6875 -16.78125 C-28.31174398 -17.02303626 -13.65713159 -13.00387567 0 0 Z " fill="#000000" transform="translate(296.3125,216.8125)"/>
</svg>
