<?xml version="1.0" encoding="UTF-8"?>
<svg version="1.1" xmlns="http://www.w3.org/2000/svg" width="512" height="512">
<path d="M0 0 C14.31340724 10.21072111 25.49527009 23.89556243 34.0390625 39.16796875 C34.45800781 39.91159668 34.87695312 40.65522461 35.30859375 41.42138672 C40.91117191 51.46606666 45.87550703 61.65410397 50.1015625 72.35546875 C50.47144287 73.28665527 50.84132324 74.2178418 51.22241211 75.17724609 C53.48299099 81.09606502 55.00489672 86.9182306 56.0390625 93.16796875 C57.08525757 92.95648193 57.08525757 92.95648193 58.15258789 92.74072266 C95.48339762 85.28250149 138.81502761 79.22753137 173.0390625 100.16796875 C185.22174931 108.41356775 193.18372421 119.56869749 196.62670898 133.89257812 C200.27306198 154.01336554 194.84336052 173.27972801 186.0390625 191.16796875 C185.73484375 191.79413086 185.430625 192.42029297 185.1171875 193.06542969 C177.93381755 207.68328316 168.59862484 220.79869773 158.0390625 233.16796875 C157.03708598 234.35489973 156.03582319 235.54243348 155.03515625 236.73046875 C152.37737352 239.88279131 149.71047301 243.02718892 147.0390625 246.16796875 C148.71411627 250.24162021 151.58883122 253.23488919 154.4765625 256.48046875 C178.85000361 284.48915843 198.83041753 317.44607797 197.234375 355.59814453 C196.50818373 365.1530061 192.48646122 373.40370171 187.0390625 381.16796875 C186.62269531 381.78027344 186.20632813 382.39257812 185.77734375 383.0234375 C174.43467184 397.9085655 154.38536946 404.22747086 136.64453125 406.859375 C109.3907823 410.46793731 82.79646194 406.53662835 56.0390625 401.16796875 C55.89863525 402.04739136 55.89863525 402.04739136 55.75537109 402.94458008 C54.51163345 409.94557514 52.3352154 416.27900293 49.6640625 422.85546875 C49.22707031 423.93546143 48.79007812 425.0154541 48.33984375 426.12817383 C36.0540373 455.82824571 19.32895556 485.06712502 -10.50390625 499.7578125 C-23.26936957 504.96496759 -39.07356655 505.25017564 -52.0234375 500.4765625 C-72.42234901 491.38928144 -87.18175055 474.39339142 -97.9609375 455.16796875 C-98.37988281 454.4296582 -98.79882812 453.69134766 -99.23046875 452.93066406 C-108.34520995 436.71719431 -116.3205573 419.50190426 -119.9609375 401.16796875 C-121.01498779 401.37945557 -121.01498779 401.37945557 -122.09033203 401.59521484 C-161.06124921 409.3311098 -204.74905699 415.05869762 -239.90625 392.2578125 C-251.06792152 383.94629257 -258.47376538 371.83276776 -260.9609375 358.16796875 C-262.79601944 338.168788 -258.72941403 320.98342875 -249.9609375 303.16796875 C-249.65671875 302.54180664 -249.3525 301.91564453 -249.0390625 301.27050781 C-241.85569255 286.65265434 -232.52049984 273.53723977 -221.9609375 261.16796875 C-220.95896098 259.98103777 -219.95769819 258.79350402 -218.95703125 257.60546875 C-216.29924852 254.45314619 -213.63234801 251.30874858 -210.9609375 248.16796875 C-212.63599127 244.09431729 -215.51070622 241.10104831 -218.3984375 237.85546875 C-242.77187861 209.84677907 -262.75229253 176.88985953 -261.15625 138.73779297 C-260.43145449 129.20129606 -256.43737623 120.89627644 -250.9609375 113.16796875 C-250.48269531 112.4821875 -250.00445312 111.79640625 -249.51171875 111.08984375 C-236.97980132 95.05404009 -214.72471573 89.29342199 -195.484375 86.69921875 C-192.30442689 86.41515391 -189.15219569 86.25650788 -185.9609375 86.16796875 C-184.77886719 86.12800781 -183.59679687 86.08804688 -182.37890625 86.046875 C-161.2269292 85.68255523 -140.6712858 89.18433394 -119.9609375 93.16796875 C-119.86731934 92.58168701 -119.77370117 91.99540527 -119.67724609 91.39135742 C-118.43350845 84.39036236 -116.2570904 78.05693457 -113.5859375 71.48046875 C-113.14894531 70.40047607 -112.71195313 69.3204834 -112.26171875 68.20776367 C-99.9759123 38.50769179 -83.25083056 9.26881248 -53.41796875 -5.421875 C-35.79346222 -12.61108049 -15.96853272 -9.88026629 0 0 Z M-70.01464844 41.66748047 C-72.09980319 44.7741831 -74.05022895 47.95170768 -75.9609375 51.16796875 C-76.63511719 52.29203125 -77.30929688 53.41609375 -78.00390625 54.57421875 C-82.45078122 62.45610493 -85.94410318 70.6574648 -89.3359375 79.04296875 C-89.97982422 80.63020752 -89.97982422 80.63020752 -90.63671875 82.24951172 C-92.97864575 88.18382754 -94.76989625 93.89864174 -95.9609375 100.16796875 C-94.57479248 100.62683472 -94.57479248 100.62683472 -93.16064453 101.0949707 C-88.7979817 102.54371489 -84.44088522 104.00870773 -80.0859375 105.48046875 C-79.29716217 105.74686157 -78.50838684 106.01325439 -77.69570923 106.28771973 C-65.86486827 110.30184365 -54.34245112 114.701116 -42.95947266 119.86450195 C-41.98413574 120.29980225 -41.00879883 120.73510254 -40.00390625 121.18359375 C-38.75130005 121.76028809 -38.75130005 121.76028809 -37.47338867 122.34863281 C-32.46952941 123.98044232 -28.61474621 123.34596925 -23.91796875 121.18359375 C-22.94263184 120.74829346 -21.96729492 120.31299316 -20.96240234 119.86450195 C-19.91004395 119.387146 -18.85768555 118.90979004 -17.7734375 118.41796875 C-6.64098199 113.51959083 4.6443919 109.37100316 16.1640625 105.48046875 C17.35145523 105.07918762 17.35145523 105.07918762 18.56283569 104.6697998 C23.05067253 103.15629738 27.54284672 101.65638473 32.0390625 100.16796875 C30.74896199 93.65882526 28.92395791 87.74117251 26.4140625 81.60546875 C26.06287354 80.73921875 25.71168457 79.87296875 25.34985352 78.98046875 C18.64042474 62.69489602 10.72420251 46.47072377 -0.9609375 33.16796875 C-1.69957031 32.31074219 -2.43820312 31.45351563 -3.19921875 30.5703125 C-10.99122707 22.11515454 -20.22203485 15.9772994 -31.9609375 15.29296875 C-48.79329574 16.32735948 -60.84020633 28.60199961 -70.01464844 41.66748047 Z M-228.9609375 126.16796875 C-235.94310311 135.86624106 -236.85893793 144.52998615 -235.9609375 156.16796875 C-231.25635959 184.0658161 -210.73133853 209.05351431 -191.9609375 229.16796875 C-187.84795371 225.69478244 -183.84551926 222.14144547 -179.8984375 218.48046875 C-174.6869297 213.72399028 -169.24259517 209.36230057 -163.6640625 205.046875 C-159.09099078 201.50923887 -154.59767706 197.87255875 -150.11035156 194.22705078 C-149.52479492 193.75509277 -148.93923828 193.28313477 -148.3359375 192.796875 C-147.77261719 192.33555176 -147.20929688 191.87422852 -146.62890625 191.39892578 C-144.9609375 190.16796875 -144.9609375 190.16796875 -141.6484375 188.5703125 C-137.27166179 184.65793305 -137.57514854 179.79876026 -136.9609375 174.16796875 C-136.58848914 171.66510244 -136.20520699 169.16383024 -135.8125 166.6640625 C-135.61084832 165.34174431 -135.40993199 164.0193138 -135.2097168 162.69677734 C-133.48066538 151.34147099 -131.74975756 140.01855083 -129.12939453 128.82592773 C-128.21684423 124.85714105 -127.78965762 121.24062375 -127.9609375 117.16796875 C-157.2761301 111.10478635 -205.31511852 101.38029935 -228.9609375 126.16796875 Z M64.0390625 117.16796875 C64.61128238 124.55499195 65.85493418 131.6682359 67.3515625 138.91796875 C69.65691266 150.38517793 71.31047638 161.86065239 72.69458008 173.46777344 C72.84306396 174.67594727 72.99154785 175.88412109 73.14453125 177.12890625 C73.26981201 178.19931152 73.39509277 179.2697168 73.52416992 180.37255859 C74.31089257 184.643765 75.26559575 186.56146179 78.69921875 189.25390625 C79.82912606 190.02314363 80.96358194 190.78572577 82.1015625 191.54296875 C94.51909734 200.10740595 105.92868732 209.98682495 117.0390625 220.16796875 C118.51372042 221.48553253 119.99264838 222.79833862 121.4765625 224.10546875 C122.40275391 224.92337891 122.40275391 224.92337891 123.34765625 225.7578125 C125.19523756 227.34918914 125.19523756 227.34918914 128.0390625 229.16796875 C145.37261222 211.15199581 160.08607732 190.63448262 169.0390625 167.16796875 C169.39871094 166.22953125 169.75835937 165.29109375 170.12890625 164.32421875 C173.43581358 154.20538712 174.01446238 142.23574014 169.4765625 132.48046875 C163.50965771 122.29917666 154.24837471 117.42549635 143.06811523 114.44775391 C117.28446271 107.91681823 89.66308544 111.20594361 64.0390625 117.16796875 Z M-102.9609375 124.16796875 C-105.62765698 133.14686999 -107.61013297 142.12760052 -109.2109375 151.35546875 C-109.47342285 152.86089233 -109.47342285 152.86089233 -109.74121094 154.39672852 C-110.41879507 158.41281194 -110.9609375 162.08049783 -110.9609375 166.16796875 C-107.2565207 164.79253135 -104.00583005 163.10281819 -100.63671875 161.04296875 C-99.61570068 160.42301025 -98.59468262 159.80305176 -97.54272461 159.16430664 C-96.46385986 158.50551514 -95.38499512 157.84672363 -94.2734375 157.16796875 C-83.96339007 150.92061659 -73.55523106 144.91838352 -62.9609375 139.16796875 C-64.44348905 136.20286565 -66.47010797 136.03065234 -69.54296875 134.890625 C-70.70376953 134.45943359 -71.86457031 134.02824219 -73.06054688 133.58398438 C-74.28580078 133.13732422 -75.51105469 132.69066406 -76.7734375 132.23046875 C-78.54750977 131.5662793 -78.54750977 131.5662793 -80.35742188 130.88867188 C-87.80121406 128.14880103 -95.22199744 125.90876374 -102.9609375 124.16796875 Z M30.0546875 126.46875 C29.361474 126.70579147 28.6682605 126.94283295 27.95404053 127.1870575 C26.48412556 127.69077558 25.01475862 128.19609522 23.54589844 128.70288086 C21.31364657 129.47199836 19.07886244 130.23338262 16.84375 130.99414062 C15.41390081 131.48520652 13.98420824 131.97672876 12.5546875 132.46875 C11.56060883 132.80644157 11.56060883 132.80644157 10.54644775 133.1509552 C6.53846826 134.54228392 2.79268597 136.1930065 -0.9609375 138.16796875 C1.09267026 140.38824499 2.97486512 141.81587094 5.6796875 143.15625 C6.77506836 143.71131226 6.77506836 143.71131226 7.89257812 144.27758789 C9.07883789 144.87301392 9.07883789 144.87301392 10.2890625 145.48046875 C19.31478776 150.10217101 27.9506746 155.25556832 36.55957031 160.60864258 C37.49124023 161.18638428 38.42291016 161.76412598 39.3828125 162.359375 C40.62321289 163.13583374 40.62321289 163.13583374 41.88867188 163.92797852 C44.10315508 165.30041879 44.10315508 165.30041879 47.0390625 166.16796875 C46.07760472 156.40988979 44.48311991 146.88998463 42.4765625 137.29296875 C42.14362183 135.69678711 42.14362183 135.69678711 41.80395508 134.06835938 C40.83996422 128.97828116 40.83996422 128.97828116 39.0390625 124.16796875 C35.87080236 124.16796875 33.02243788 125.44589864 30.0546875 126.46875 Z M-160.2734375 234.35546875 C-160.84731201 234.84176758 -161.42118652 235.32806641 -162.01245117 235.82910156 C-165.84624714 239.111883 -169.42934752 242.56157959 -172.9609375 246.16796875 C-168.98593433 255.12655798 -159.4076282 261.23324425 -151.9609375 267.16796875 C-150.53007812 268.33005859 -150.53007812 268.33005859 -149.0703125 269.515625 C-145.36987834 273.1520563 -145.36987834 273.1520563 -140.9609375 275.16796875 C-140.9609375 256.68796875 -140.9609375 238.20796875 -140.9609375 219.16796875 C-146.06399608 219.16796875 -156.11436484 230.81389305 -160.2734375 234.35546875 Z M77.0390625 219.16796875 C77.0390625 237.64796875 77.0390625 256.12796875 77.0390625 275.16796875 C81.38936944 272.26776412 85.35119529 269.36433033 89.2890625 265.98046875 C89.84899902 265.50287109 90.40893555 265.02527344 90.98583984 264.53320312 C100.25088432 256.60904194 100.25088432 256.60904194 109.0390625 248.16796875 C105.06405933 239.20937952 95.4857532 233.10269325 88.0390625 227.16796875 C87.08515625 226.39324219 86.13125 225.61851562 85.1484375 224.8203125 C81.44800334 221.1838812 81.44800334 221.1838812 77.0390625 219.16796875 Z M-191.9609375 265.16796875 C-209.29448722 283.18394169 -224.00795232 303.70145488 -232.9609375 327.16796875 C-233.32058594 328.10640625 -233.68023437 329.04484375 -234.05078125 330.01171875 C-237.35768858 340.13055038 -237.93633738 352.10019736 -233.3984375 361.85546875 C-227.44085301 372.02085767 -218.20840234 376.87424095 -207.05883789 379.88720703 C-200.40182541 381.57140872 -193.83657806 382.93423593 -186.9609375 383.16796875 C-185.13175781 383.2453125 -185.13175781 383.2453125 -183.265625 383.32421875 C-164.76427118 383.84048537 -145.96642933 381.35736536 -127.9609375 377.16796875 C-128.51616218 369.35565801 -129.91284178 361.78145841 -131.42956543 354.10510254 C-133.76499786 342.25395805 -135.76770834 330.45318893 -137.02294922 318.42919922 C-137.1210791 317.52314941 -137.21920898 316.61709961 -137.3203125 315.68359375 C-137.39733398 314.90274414 -137.47435547 314.12189453 -137.55371094 313.31738281 C-138.29515652 309.40390146 -139.47726072 307.54723953 -142.62109375 305.08203125 C-143.75100106 304.31279387 -144.88545694 303.55021173 -146.0234375 302.79296875 C-158.44097234 294.22853155 -169.85056232 284.34911255 -180.9609375 274.16796875 C-182.43559542 272.85040497 -183.91452338 271.53759888 -185.3984375 270.23046875 C-186.01589844 269.68519531 -186.63335937 269.13992188 -187.26953125 268.578125 C-189.11711256 266.98674836 -189.11711256 266.98674836 -191.9609375 265.16796875 Z M125.578125 266.6015625 C124.94648438 267.26285156 124.31484375 267.92414063 123.6640625 268.60546875 C119.59922174 272.72848254 115.25093111 276.3448736 110.73828125 279.96484375 C108.38692062 281.88404403 106.14592391 283.86310215 103.9140625 285.91796875 C98.26649093 291.00282938 92.17679065 295.52983247 86.125 300.1171875 C85.10164551 300.90681885 85.10164551 300.90681885 84.05761719 301.71240234 C82.0390625 303.16796875 82.0390625 303.16796875 80.02832031 304.25244141 C76.95078328 305.9806703 75.36306078 307.17455337 74.24511719 310.60229492 C73.70337498 313.78569824 73.36090554 316.95497799 73.0390625 320.16796875 C72.66893851 322.65947007 72.28552739 325.1490245 71.890625 327.63671875 C71.59224731 329.59291138 71.59224731 329.59291138 71.2878418 331.58862305 C69.51524196 343.19365915 67.70347218 354.76503177 65.20751953 366.2421875 C64.4129695 369.94622927 63.8369958 373.37360519 64.0390625 377.16796875 C93.66846697 383.29613875 132.35528084 390.47125335 159.6015625 372.91796875 C165.99356105 368.03622609 169.93652075 361.90570122 172.0390625 354.16796875 C174.8098308 324.52719158 156.36272844 298.55328992 138.34716797 276.72558594 C135.02788559 272.77317429 131.67289445 268.83560379 128.0390625 265.16796875 C126.81688263 265.05123613 126.81688263 265.05123613 125.578125 266.6015625 Z M-110.9609375 328.16796875 C-109.99947972 337.92604771 -108.40499491 347.44595287 -106.3984375 357.04296875 C-106.17647705 358.10708984 -105.9545166 359.17121094 -105.72583008 360.26757812 C-104.76183922 365.35765634 -104.76183922 365.35765634 -102.9609375 370.16796875 C-95.22930888 368.16561441 -87.6838171 365.81056727 -80.1484375 363.16796875 C-79.15134766 362.82507813 -78.15425781 362.4821875 -77.12695312 362.12890625 C-72.21985921 360.41811636 -67.53009865 358.6503653 -62.9609375 356.16796875 C-65.01454526 353.94769251 -66.89674012 352.52006656 -69.6015625 351.1796875 C-70.69694336 350.62462524 -70.69694336 350.62462524 -71.81445312 350.05834961 C-73.00071289 349.46292358 -73.00071289 349.46292358 -74.2109375 348.85546875 C-83.23666276 344.23376649 -91.8725496 339.08036918 -100.48144531 333.72729492 C-101.41311523 333.14955322 -102.34478516 332.57181152 -103.3046875 331.9765625 C-104.13162109 331.45892334 -104.95855469 330.94128418 -105.81054688 330.40795898 C-108.02503008 329.03551871 -108.02503008 329.03551871 -110.9609375 328.16796875 Z M38.2265625 332.41796875 C31.61970414 336.62414374 24.90935146 340.60829283 18.1015625 344.48046875 C17.23877686 344.9712793 16.37599121 345.46208984 15.48706055 345.96777344 C10.02164209 349.06563256 4.53570943 352.12590912 -0.9609375 355.16796875 C0.47544018 358.04072411 2.1857806 358.13253073 5.18359375 359.19140625 C6.25416016 359.57296875 7.32472656 359.95453125 8.42773438 360.34765625 C9.55759766 360.74210937 10.68746094 361.1365625 11.8515625 361.54296875 C12.93888672 361.9296875 14.02621094 362.31640625 15.14648438 362.71484375 C20.66342053 364.66855376 26.19574145 366.5772217 31.73828125 368.45703125 C32.70983154 368.78654785 33.68138184 369.11606445 34.68237305 369.45556641 C36.94780086 370.26442135 36.94780086 370.26442135 39.0390625 370.16796875 C41.70578198 361.18906751 43.68825797 352.20833698 45.2890625 342.98046875 C45.46405273 341.97685303 45.63904297 340.9732373 45.81933594 339.93920898 C46.49692007 335.92312556 47.0390625 332.25543967 47.0390625 328.16796875 C43.63384402 328.16796875 41.01652906 330.61221879 38.2265625 332.41796875 Z M-40.00390625 373.15234375 C-40.97924316 373.58764404 -41.95458008 374.02294434 -42.95947266 374.47143555 C-44.01183105 374.9487915 -45.06418945 375.42614746 -46.1484375 375.91796875 C-57.28089301 380.81634667 -68.5662669 384.96493434 -80.0859375 388.85546875 C-81.27333023 389.25674988 -81.27333023 389.25674988 -82.48471069 389.6661377 C-86.97254753 391.17964012 -91.46472172 392.67955277 -95.9609375 394.16796875 C-94.67083699 400.67711224 -92.84583291 406.59476499 -90.3359375 412.73046875 C-89.98474854 413.59671875 -89.63355957 414.46296875 -89.27172852 415.35546875 C-82.56229974 431.64104148 -74.64607751 447.86521373 -62.9609375 461.16796875 C-61.85298828 462.45380859 -61.85298828 462.45380859 -60.72265625 463.765625 C-52.93064793 472.22078296 -43.69984015 478.3586381 -31.9609375 479.04296875 C-18.99936372 478.24644746 -9.44775006 470.97306853 -0.99609375 461.75390625 C4.01747174 455.98838509 8.14346736 449.72535343 12.0390625 443.16796875 C12.71324219 442.04390625 13.38742187 440.91984375 14.08203125 439.76171875 C18.52890622 431.87983257 22.02222818 423.6784727 25.4140625 415.29296875 C25.84332031 414.23480957 26.27257812 413.17665039 26.71484375 412.08642578 C29.05677075 406.15210996 30.84802125 400.43729576 32.0390625 394.16796875 C31.11496582 393.86205811 30.19086914 393.55614746 29.23876953 393.2409668 C24.8761067 391.79222261 20.51901022 390.32722977 16.1640625 388.85546875 C15.37528717 388.58907593 14.58651184 388.32268311 13.77383423 388.04821777 C1.94299327 384.03409385 -9.57942388 379.6348215 -20.96240234 374.47143555 C-21.93773926 374.03613525 -22.91307617 373.60083496 -23.91796875 373.15234375 C-24.75303955 372.76788086 -25.58811035 372.38341797 -26.44848633 371.98730469 C-31.45234559 370.35549518 -35.30712879 370.98996825 -40.00390625 373.15234375 Z " fill="#2750D0" transform="translate(287.9609375,8.83203125)"/>
<path d="M0 0 C1.25348782 0.63114093 2.50326883 1.26967754 3.75 1.9140625 C4.43932617 2.2656543 5.12865234 2.61724609 5.83886719 2.97949219 C7.34537919 3.75040523 8.85019529 4.52463921 10.35351562 5.30175781 C12.81958766 6.5749906 15.29246114 7.83435641 17.765625 9.09375 C29.12040142 14.91493046 40.18513294 21.08515255 50.99316406 27.86865234 C54.0507135 29.72126953 57.17114113 31.43167073 60.3046875 33.15234375 C62.51710555 34.44538674 64.72806572 35.7409277 66.9375 37.0390625 C67.99622314 37.58780029 69.05494629 38.13653809 70.14575195 38.7019043 C73.86041944 40.9684551 77.00842814 43.03447038 78.29928589 47.39422607 C79.09515948 52.38896869 78.9514981 57.39769406 78.81637573 62.43908691 C78.74522264 65.76218179 78.77405311 69.07401 78.82250977 72.39746094 C78.91101581 78.68764617 78.93569898 84.97583799 78.93530273 91.26660156 C78.93750043 95.16482291 78.95576462 99.06276543 78.97460938 102.9609375 C78.99428049 110.15639079 78.92192274 117.34564646 78.75 124.5390625 C78.7188208 125.98294342 78.7188208 125.98294342 78.68701172 127.45599365 C78.28442591 140.39789147 78.28442591 140.39789147 75.03295898 144.93505859 C72.74416143 146.8337704 70.54155707 148.10326758 67.875 149.4140625 C66.53284424 150.17481079 66.53284424 150.17481079 65.16357422 150.95092773 C63.29987279 152.00450155 61.42203621 153.03344214 59.53125 154.03759766 C56.03649713 155.92424883 52.68329154 158.00230877 49.31079102 160.09716797 C38.87091673 166.54504863 28.08607161 172.38829007 17.27539062 178.18457031 C14.91482403 179.4506592 12.55841546 180.72413059 10.203125 182 C-4.6691253 190.02091035 -4.6691253 190.02091035 -10.25 188.5390625 C-12.23891646 187.66108953 -14.19816458 186.71450435 -16.1328125 185.72265625 C-17.86313721 184.83610352 -17.86313721 184.83610352 -19.62841797 183.93164062 C-20.87776034 183.28087184 -22.12660853 182.62915357 -23.375 181.9765625 C-24.33240082 181.47878296 -24.33240082 181.47878296 -25.30914307 180.97094727 C-38.15601749 174.27753054 -50.65085402 167.09751642 -62.98681641 159.49902344 C-66.27620864 157.52332084 -69.61527191 155.67116919 -72.98046875 153.828125 C-75.09215106 152.60850966 -77.20287204 151.38722791 -79.3125 150.1640625 C-80.28880371 149.66132813 -81.26510742 149.15859375 -82.27099609 148.640625 C-86.61208912 146.02953561 -88.80459026 144.0070151 -90.29760742 139.08642578 C-91.08657044 134.26110365 -91.17294559 129.41896993 -91.25 124.5390625 C-91.27391815 123.47492126 -91.2978363 122.41078003 -91.32247925 121.31439209 C-91.47305954 113.89931611 -91.49166293 106.48858631 -91.45581055 99.07226562 C-91.43756679 95.17831827 -91.4353016 91.2846107 -91.43554688 87.390625 C-91.43034734 81.22159349 -91.36541724 75.05508314 -91.27648926 68.88674927 C-91.25171735 65.75609908 -91.29331174 62.63365611 -91.35253906 59.50366211 C-91.43021182 47.30213233 -91.43021182 47.30213233 -88.44116211 42.83691406 C-85.9444226 40.71984874 -83.55306208 39.30802618 -80.625 37.8515625 C-79.66658203 37.29871582 -78.70816406 36.74586914 -77.72070312 36.17626953 C-75.80169076 35.0756973 -73.86577371 34.00400838 -71.91308594 32.96435547 C-69.02238103 31.41724003 -66.25536013 29.7311957 -63.47949219 27.98999023 C-60.4446719 26.10200985 -57.34267312 24.33002995 -54.25 22.5390625 C-53.49879883 22.09916992 -52.74759766 21.65927734 -51.97363281 21.20605469 C-41.35427085 14.99119344 -30.60856919 9.01337958 -19.75 3.2265625 C-18.68152832 2.64487305 -17.61305664 2.06318359 -16.51220703 1.46386719 C-15.50786621 0.93567383 -14.50352539 0.40748047 -13.46875 -0.13671875 C-12.58123047 -0.61020752 -11.69371094 -1.08369629 -10.77929688 -1.5715332 C-6.59350326 -3.04342955 -3.92869881 -1.76602567 0 0 Z " fill="#24E8C2" transform="translate(262.25,162.4609375)"/>
<path d="M0 0 C10.82514857 6.79761013 18.11412062 16.20099436 21.5078125 28.64453125 C22.70662906 41.71999562 20.85580406 54.08176642 12.5078125 64.64453125 C5.38192491 73.01462143 -3.28938251 79.34021743 -14.4921875 80.64453125 C-28.37283649 81.60538555 -38.7297804 79.57687766 -49.98046875 70.91015625 C-58.31697327 63.39044766 -63.8809336 52.39872355 -64.765625 41.17578125 C-65.22037092 28.29878588 -62.09787208 17.77171724 -53.1171875 8.08203125 C-37.91403991 -6.03517723 -18.87837032 -10.26770298 0 0 Z " fill="#2751CF" transform="translate(277.4921875,218.35546875)"/>
<path d="M0 0 C4.5916797 3.84419696 7.41533697 7.93939515 8.28515625 13.98046875 C8.56147304 20.19158959 6.70629082 24.91453344 2.75 29.75 C-2.08546656 33.70629082 -6.80841041 35.56147304 -13.01953125 35.28515625 C-19.06060485 34.41533697 -23.15580304 31.5916797 -27 27 C-30.65561555 21.70566024 -30.93621403 16.22670654 -30 10 C-27.79954215 4.34839671 -24.3675119 0.85505952 -19 -2 C-12.35102687 -4.02596523 -5.88711404 -3.88014335 0 0 Z " fill="#24E7C2" transform="translate(267,240)"/>
</svg>
