<?xml version="1.0" encoding="UTF-8"?>
<svg version="1.1" xmlns="http://www.w3.org/2000/svg" width="512" height="512">
<path d="M0 0 C11.15272551 9.47597092 17.9667407 21.43308164 20.08203125 35.84375 C20.17304659 37.95409296 20.21668221 40.06681089 20.22247314 42.17910767 C20.22818329 43.43213684 20.23389343 44.68516602 20.23977661 45.97616577 C20.24102175 47.35211172 20.24214689 48.72805777 20.24316406 50.10400391 C20.24779705 51.56323368 20.25282236 53.02246226 20.25820923 54.48168945 C20.27129094 58.43655877 20.27777018 62.39141114 20.28221989 66.34629869 C20.28515812 68.82188549 20.28926437 71.29746773 20.29372406 73.77305222 C20.30738932 81.53221381 20.31706011 89.29136491 20.32092595 97.05053771 C20.32540115 105.98168427 20.34292809 114.91267737 20.37192655 123.8437773 C20.39360842 130.76377693 20.40363373 137.68373359 20.40496707 144.6037668 C20.40601067 148.72890218 20.41182264 152.85389311 20.42978668 156.97899246 C20.44637981 160.86473826 20.44836898 164.75023278 20.43964767 168.63600159 C20.43888321 170.05324862 20.44314102 171.47050981 20.45310593 172.88772202 C20.56805101 190.27048622 16.55546586 203.81933279 4.421875 216.55859375 C-7.5061403 228.20782406 -20.47505172 232.12527025 -36.77832031 232.1628418 C-44.11413187 232.06519058 -50.24230487 231.0246306 -56.91796875 227.84375 C-57.69914062 227.493125 -58.4803125 227.1425 -59.28515625 226.78125 C-71.83173833 220.52966585 -81.00123537 209.56035947 -86.09375 196.65625 C-88.75975378 187.55898592 -89.20589778 178.91946005 -89.17675781 169.46484375 C-89.17947342 168.04118675 -89.18303753 166.61753115 -89.18737793 165.19387817 C-89.1964365 161.35504281 -89.19298486 157.51631586 -89.18661976 153.67747879 C-89.18152572 149.64362565 -89.18626062 145.60978127 -89.18939209 141.57592773 C-89.19302187 134.80418242 -89.18825865 128.03248085 -89.17871094 121.26074219 C-89.16782829 113.45245704 -89.17135457 105.64427638 -89.18236375 97.83599377 C-89.19146487 91.10956782 -89.19270813 84.38317317 -89.18748641 77.65674305 C-89.1843822 73.64914553 -89.18391448 69.64159698 -89.19055939 65.63400269 C-89.19637348 61.86478708 -89.19226232 58.09570506 -89.18077087 54.32650375 C-89.17690231 52.29841033 -89.18277513 50.2703055 -89.18902588 48.24221802 C-89.11287542 31.66412676 -85.02711817 17.53712671 -73.91796875 4.84375 C-53.80166717 -15.03143152 -22.60377511 -16.70319124 0 0 Z " fill="#FF175A" transform="translate(222.91796875,280.15625)"/>
<path d="M0 0 C1.87954376 -0.00856522 1.87954376 -0.00856522 3.79705811 -0.01730347 C5.17300405 -0.01854861 6.54895011 -0.01967375 7.92489624 -0.02069092 C9.38412602 -0.02532391 10.8433546 -0.03034921 12.30258179 -0.03573608 C16.2574511 -0.04881779 20.21230347 -0.05529703 24.16719103 -0.05974674 C26.64277782 -0.06268497 29.11836006 -0.06679123 31.59394455 -0.07125092 C39.35310615 -0.08491617 47.11225725 -0.09458696 54.87143004 -0.09845281 C63.8025766 -0.10292801 72.7335697 -0.12045495 81.66466963 -0.1494534 C88.58466926 -0.17113527 95.50462593 -0.18116058 102.42465913 -0.18249393 C106.54979451 -0.18353752 110.67478544 -0.1893495 114.7998848 -0.20731354 C118.68563059 -0.22390667 122.57112511 -0.22589584 126.45689392 -0.21717453 C127.87414096 -0.21641006 129.29140214 -0.22066788 130.70861435 -0.23063278 C148.09137856 -0.34557787 161.64022513 3.66700728 174.37948608 15.80059814 C186.02871639 27.72861345 189.94616258 40.69752487 189.98373413 57.00079346 C189.88608291 64.33660501 188.84552293 70.46477801 185.66464233 77.14044189 C185.31401733 77.92161377 184.96339233 78.70278564 184.60214233 79.50762939 C178.44841102 91.85782627 167.33637032 101.69430311 154.3492403 106.29538536 C145.13774609 109.19497534 135.94637204 109.43769919 126.35922241 109.43096924 C124.95500334 109.43696821 123.55078753 109.44377685 122.14657593 109.45132446 C118.36319784 109.46885407 114.57991046 109.47367432 110.79649568 109.47495604 C108.4235271 109.47638581 106.05058098 109.48067093 103.67761803 109.48595047 C95.37274102 109.50440872 87.06792785 109.51262651 78.76303101 109.51104736 C71.06439387 109.50984761 63.36603781 109.53092805 55.66747171 109.56253469 C49.02245564 109.58882789 42.37753064 109.59940921 35.73246306 109.59813654 C31.7793792 109.59763066 27.82654545 109.60310389 23.87351418 109.62449265 C-20.71668501 109.84889902 -20.71668501 109.84889902 -37.42910767 94.16387939 C-48.94867825 81.93613848 -53.83912649 67.6837135 -53.54629517 51.05450439 C-52.7882714 36.98895235 -46.87497567 24.79204681 -37.17910767 14.68731689 C-26.47424765 5.09999721 -14.31154153 0.03923561 0 0 Z " fill="#FFB20E" transform="translate(322.3353576660156,268.85955810546875)"/>
<path d="M0 0 C1.17175781 0.5259375 1.17175781 0.5259375 2.3671875 1.0625 C14.71738437 7.21623131 24.55386121 18.32827201 29.15494347 31.31540203 C32.05453345 40.52689624 32.29725729 49.7182703 32.29052734 59.30541992 C32.29652632 60.709639 32.30333496 62.1138548 32.31088257 63.51806641 C32.32841217 67.30144449 32.33323243 71.08473188 32.33451414 74.86814666 C32.33594391 77.24111523 32.34022904 79.61406135 32.34550858 81.98702431 C32.36396683 90.29190132 32.37218462 98.59671449 32.37060547 106.90161133 C32.36940572 114.60024847 32.39048615 122.29860453 32.4220928 129.99717063 C32.448386 136.64218669 32.45896732 143.28711169 32.45769465 149.93217927 C32.45718876 153.88526314 32.46266199 157.83809688 32.48405075 161.79112816 C32.70845713 206.38132734 32.70845713 206.38132734 17.0234375 223.09375 C4.93859875 234.47869461 -9.38977737 239.59821328 -25.87890625 239.27734375 C-41.39043791 238.53939869 -54.63767678 231.34277142 -65 220 C-72.8046996 209.306634 -77.10404633 198.94025099 -77.14044189 185.66464233 C-77.14615204 184.41161316 -77.15186218 183.15858398 -77.15774536 181.86758423 C-77.1589905 180.49163828 -77.16011564 179.11569223 -77.16113281 177.73974609 C-77.1657658 176.28051632 -77.17079111 174.82128774 -77.17617798 173.36206055 C-77.18925969 169.40719123 -77.19573893 165.45233886 -77.20018864 161.49745131 C-77.20312687 159.02186451 -77.20723312 156.54628227 -77.21169281 154.07069778 C-77.22535807 146.31153619 -77.23502886 138.55238509 -77.2388947 130.79321229 C-77.2433699 121.86206573 -77.26089684 112.93107263 -77.2898953 103.9999727 C-77.31157717 97.07997307 -77.32160248 90.16001641 -77.32293582 83.2399832 C-77.32397942 79.11484782 -77.32979139 74.98985689 -77.34775543 70.86475754 C-77.36434856 66.97901174 -77.36633773 63.09351722 -77.35761642 59.20774841 C-77.35685196 57.79050138 -77.36110977 56.37324019 -77.37107468 54.95602798 C-77.48601976 37.57326378 -73.47343461 24.02441721 -61.33984375 11.28515625 C-45.5229317 -4.16207839 -20.48100221 -9.75897284 0 0 Z " fill="#00B67A" transform="translate(346,4)"/>
<path d="M0 0 C1.40362716 -0.00627405 2.80725269 -0.01292166 4.21087646 -0.01991272 C8.80341457 -0.04085191 13.39595261 -0.05130885 17.98852539 -0.0612793 C19.57774942 -0.0653313 21.16697328 -0.06944835 22.75619698 -0.07362938 C30.22917069 -0.09266253 37.70213467 -0.10689481 45.17512792 -0.11524135 C53.76102139 -0.12499267 62.34665561 -0.15126478 70.93245786 -0.19174224 C77.59436714 -0.22205603 84.25620275 -0.23672476 90.91817957 -0.24002236 C94.88475342 -0.24235637 98.85104978 -0.25109825 102.81754875 -0.27648354 C106.55810001 -0.30003711 110.29819645 -0.30389021 114.0388031 -0.29372215 C116.03718513 -0.29300316 118.03554551 -0.31190253 120.03382874 -0.33178711 C136.34018705 -0.23987581 152.11961547 3.84161509 164.30883789 15.20825195 C175.82748275 27.53393562 180.67660582 41.79214715 180.39477539 58.40356445 C179.39248636 73.77199629 172.53751205 86.90812578 161.14868164 97.17700195 C148.10529596 107.2559818 134.10450745 109.80161273 117.95849609 109.67871094 C116.50778686 109.68250718 115.05708127 109.68801784 113.60638428 109.69508362 C109.71593651 109.7088821 105.82593872 109.6979819 101.9355166 109.6813724 C97.83723234 109.66737632 93.7389704 109.67399806 89.64067078 109.67750549 C82.76590847 109.68019533 75.891322 109.66683524 69.01660156 109.64355469 C61.09743243 109.61692086 53.17855637 109.61521256 45.25935775 109.62694305 C37.59895073 109.63776332 29.93864848 109.6315026 22.27824974 109.61738777 C19.03652623 109.61166789 15.79488042 109.61167876 12.5531559 109.61645317 C8.73044114 109.62126494 4.90804288 109.61094988 1.08538818 109.58949852 C-0.30766037 109.58398831 -1.70073971 109.58341147 -3.09379005 109.58845139 C-20.24550848 109.64267222 -35.01307694 105.64109745 -47.60131836 93.5168457 C-60.03845401 80.58308832 -63.36465126 66.90854301 -63.13256836 49.47387695 C-62.91054181 43.17276341 -61.56376889 37.86957905 -58.85131836 32.17700195 C-58.50069336 31.39583008 -58.15006836 30.6146582 -57.78881836 29.80981445 C-50.75593379 15.69520584 -38.81086549 7.14932565 -24.24584961 2.12231445 C-16.19762813 -0.11896241 -8.30898639 0.0171131 0 0 Z " fill="#00C5F1" transform="translate(62.851318359375,133.822998046875)"/>
<path d="M0 0 C8.00689774 -0.06994378 16.01366482 -0.12303396 24.02079391 -0.15543652 C27.74004771 -0.17099914 31.45909034 -0.19206198 35.17822266 -0.22631836 C38.77683801 -0.25925193 42.37525206 -0.27692343 45.97400665 -0.28463173 C47.99443713 -0.29275785 50.01478821 -0.31612094 52.03509521 -0.33988953 C69.17282621 -0.34297052 82.07680325 4.49970124 94.5546875 16.35546875 C98.13723369 20.22988372 100.66062394 24.2909647 103 29 C103.38800781 29.73992187 103.77601563 30.47984375 104.17578125 31.2421875 C110.72501592 44.62644162 110.07906424 58.98794726 106 73 C101.20612451 86.10978196 91.66358942 97.0161061 79 103 C64.92493624 109.27589423 48.56219234 110.75602327 33.8515625 105.3203125 C18.90326432 98.39904567 8.48265188 87.60674339 2.6875 72.1875 C0.73905067 66.62167639 -0.12555604 61.64801447 -0.11352539 55.7409668 C-0.11344986 54.50005783 -0.11337433 53.25914886 -0.11329651 51.9806366 C-0.10819072 50.63683023 -0.10297474 49.29302429 -0.09765625 47.94921875 C-0.09578965 46.56631013 -0.09436689 45.18340085 -0.09336853 43.80049133 C-0.08956237 40.17225294 -0.07974843 36.544055 -0.06866455 32.91583252 C-0.05840945 29.20886787 -0.05386215 25.50189664 -0.04882812 21.79492188 C-0.03812435 14.52992954 -0.0210709 7.26497045 0 0 Z " fill="#FFB20E" transform="translate(269,404)"/>
<path d="M0 0 C10.929099 8.7617807 18.40132791 19.99776105 21.41210938 33.81054688 C22.77896745 50.61064661 20.94562332 65.13363253 10.41210938 78.81054688 C0.99696392 89.88821801 -11.15298791 96.75550558 -25.58789062 98.81054688 C-27.68018059 98.89338539 -29.77472764 98.92841651 -31.86865234 98.92407227 C-33.08946503 98.92399673 -34.31027771 98.9239212 -35.56808472 98.92384338 C-36.87141754 98.9186821 -38.17475037 98.91352081 -39.51757812 98.90820312 C-40.87663725 98.90633588 -42.23569704 98.90491342 -43.59475708 98.90391541 C-47.15557748 98.90011435 -50.71635649 98.8903049 -54.27716064 98.87921143 C-57.91718994 98.86894522 -61.55722599 98.86440666 -65.19726562 98.859375 C-72.3274908 98.84868026 -79.45768799 98.8316331 -86.58789062 98.81054688 C-86.68120494 90.69056132 -86.75196297 82.57080554 -86.79513931 74.4504137 C-86.81587797 70.67841761 -86.84393859 66.90679246 -86.88964844 63.13500977 C-86.93360389 59.48450342 -86.95713043 55.83435034 -86.9673996 52.18359947 C-86.97470309 50.80153542 -86.98896063 49.4194873 -87.01081085 48.03757668 C-87.27758054 30.44118387 -81.99489685 16.89808039 -70.00976562 4.06835938 C-66.23877938 0.55282704 -62.1735357 -1.87846242 -57.58789062 -4.18945312 C-56.84667969 -4.57875 -56.10546875 -4.96804687 -55.34179688 -5.36914062 C-37.99544129 -13.84133569 -15.42986851 -11.55816718 0 0 Z " fill="#00B67A" transform="translate(490.587890625,144.189453125)"/>
<path d="M0 0 C12.97379381 8.87581236 21.1423586 20.77423227 24.79051208 36.08024597 C25.30283092 39.12664865 25.36981762 41.98204723 25.36352539 45.0715332 C25.36341209 46.93289665 25.36341209 46.93289665 25.36329651 48.8318634 C25.35819072 50.17566977 25.35297474 51.51947571 25.34765625 52.86328125 C25.34578965 54.24618987 25.34436689 55.62909915 25.34336853 57.01200867 C25.33956237 60.64024706 25.32974843 64.268445 25.31866455 67.89666748 C25.30840945 71.60363213 25.30386215 75.31060336 25.29882812 79.01757812 C25.28812435 86.28257046 25.2710709 93.54752955 25.25 100.8125 C17.22583148 100.88239114 9.20179278 100.93550781 1.17739391 100.96793652 C-2.5497351 100.98351037 -6.27665398 101.00459451 -10.00366211 101.03881836 C-13.60875668 101.07171088 -17.2136507 101.08941506 -20.8188839 101.09713173 C-22.18583007 101.10262219 -23.55276681 101.11334166 -24.91962624 101.12969017 C-42.34337905 101.32956629 -56.5960788 96.68737833 -69.33984375 84.45703125 C-72.88328667 80.56900717 -75.41708419 76.50853117 -77.75 71.8125 C-78.13800781 71.07257813 -78.52601563 70.33265625 -78.92578125 69.5703125 C-85.67279224 55.7818755 -84.85293452 40.95881847 -80.38720703 26.63525391 C-76.31540478 14.98771537 -66.54381178 4.55098221 -55.75 -1.1875 C-37.62317371 -9.61006575 -17.64521451 -10.45102237 0 0 Z " fill="#00C5F1" transform="translate(217.75,7.1875)"/>
<path d="M0 0 C1.24090897 0.00007553 2.48181793 0.00015106 3.7603302 0.00022888 C5.10413656 0.00533467 6.44794251 0.01055065 7.79174805 0.01586914 C9.17465666 0.01773574 10.55756595 0.0191585 11.94047546 0.02015686 C15.56871385 0.02396302 19.1969118 0.03377696 22.82513428 0.04486084 C26.53209893 0.05511594 30.23907015 0.05966324 33.94604492 0.06469727 C41.21103726 0.07540104 48.47599635 0.09245449 55.7409668 0.11352539 C55.83428112 8.23351095 55.90503914 16.35326673 55.94821548 24.47365856 C55.96895414 28.24565466 55.99701477 32.01727981 56.04272461 35.7890625 C56.08668007 39.43956884 56.1102066 43.08972192 56.12047577 46.74047279 C56.12777927 48.12253685 56.1420368 49.50458497 56.16388702 50.88649559 C56.43065671 68.4828884 51.14797303 82.02599188 39.1628418 94.85571289 C35.39185555 98.37124523 31.32661187 100.80253469 26.7409668 103.11352539 C25.62915039 103.6974707 25.62915039 103.6974707 24.49487305 104.29321289 C11.10517869 110.83292101 -3.24371564 110.19354006 -17.2590332 106.11352539 C-30.36881517 101.3196499 -41.2751393 91.77711481 -47.2590332 79.11352539 C-53.53492743 65.03846163 -55.01505647 48.67571773 -49.5793457 33.96508789 C-42.65807887 19.01678971 -31.86577659 8.59617727 -16.4465332 2.80102539 C-10.88070959 0.85257606 -5.90704767 -0.01203065 0 0 Z " fill="#FF175A" transform="translate(52.259033203125,268.886474609375)"/>
</svg>
